# Blender v2.79 (sub 0) OBJ File: 'REGALO_D.blend'
# www.blender.org
mtllib REGALO_D.mtl
o Cube.001_Cube
v -0.120346 2.784931 0.319140
v -0.120346 2.359742 0.319140
v -0.120346 2.784931 0.744328
v -0.120346 2.359742 0.744328
v -0.545534 2.784931 0.319140
v -0.545534 2.359742 0.319140
v -0.545534 2.784931 0.744328
v -0.545534 2.359742 0.744328
vt 0.000000 0.000000
vt 0.000000 1.000000
vt 1.000000 1.000000
vt 1.000000 0.000000
vt 0.000000 0.000000
vt 0.000000 1.000000
vt 1.000000 1.000000
vt 1.000000 0.000000
vt 0.000000 0.000000
vt 0.000000 1.000000
vt 1.000000 1.000000
vt 1.000000 0.000000
vt 0.000000 0.000000
vt 0.000000 1.000000
vt 1.000000 1.000000
vt 1.000000 0.000000
vt 1.000000 1.000000
vt 1.000000 0.000000
vt 0.000000 0.000000
vt 0.000000 1.000000
vn 1.0000 0.0000 0.0000
vn 0.0000 0.0000 1.0000
vn -1.0000 0.0000 0.0000
vn 0.0000 0.0000 -1.0000
vn 0.0000 1.0000 0.0000
vn 0.0000 -1.0000 0.0000
usemtl Material.003
s off
f 1/1/1 3/2/1 4/3/1 2/4/1
f 3/5/2 7/6/2 8/7/2 4/8/2
f 7/9/3 5/10/3 6/11/3 8/12/3
f 5/13/4 1/14/4 2/15/4 6/16/4
f 3/5/5 1/14/5 5/17/5 7/18/5
f 8/19/6 6/20/6 2/15/6 4/8/6
o Cube_REGALO
v 0.721530 0.367576 -0.390613
v 0.721530 0.367576 1.609387
v -1.278470 0.367576 1.609387
v -1.278469 0.367576 -0.390613
v 0.721531 2.367577 -0.390612
v 0.721530 2.367577 1.609388
v -1.278470 2.367577 1.609387
v -1.278470 2.367577 -0.390613
v 0.914177 0.248807 0.647463
v -1.278470 0.367576 0.751585
v 0.721530 2.367577 0.751586
v -1.278470 2.367577 0.751585
v -1.278470 0.367576 0.376340
v -1.278470 2.367577 0.376340
v 0.914177 0.248807 0.272218
v 0.721530 2.367577 0.376341
v -0.540152 0.367576 -0.390613
v -0.514527 0.359622 1.563923
v -0.540152 2.367577 -0.390613
v -0.540152 2.367577 1.609387
v -0.540152 2.367577 0.751586
v -0.514526 0.359622 0.706122
v -0.540152 0.367576 0.376340
v -0.540152 2.367577 0.376340
v -0.154115 2.367577 0.751586
v -0.154115 2.367577 0.376340
v -0.154115 0.367576 -0.390613
v -0.128489 0.359622 1.563923
v -0.154115 2.367577 -0.390613
v -0.154115 2.367577 1.609387
v -0.128489 0.359622 0.706122
v -0.154115 0.367576 0.376340
v 0.721530 2.564994 0.376341
v 0.721530 2.564994 0.751586
v -0.154115 2.564994 0.751586
v -1.278470 2.564994 0.751585
v -1.278470 2.564994 0.376340
v -0.154115 2.564994 0.376340
v -0.154115 2.564994 -0.390613
v -0.540152 2.564994 -0.390613
v -0.154115 2.564994 1.609387
v -0.540152 2.564994 1.609387
v -0.540152 2.564994 0.751586
v -0.540152 2.564994 0.376340
v -0.154115 0.367576 1.744032
v -0.540152 0.367576 1.744032
v -0.154115 2.367577 1.744032
v -0.540152 2.367577 1.744032
v -0.540152 2.564994 1.744032
v -0.154115 2.564994 1.744032
v 1.040263 0.248807 0.272218
v 1.040263 0.248807 0.647463
v 0.847617 2.367577 0.376341
v 0.847617 2.367577 0.751586
v 0.847617 2.564994 0.376341
v 0.847617 2.564994 0.751586
v -0.154115 0.367576 -0.516184
v -0.540152 0.367576 -0.516184
v -0.154114 2.367577 -0.516183
v -0.540152 2.367577 -0.516183
v -0.154114 2.564994 -0.516183
v -0.540152 2.564994 -0.516183
v -1.398799 2.367577 0.751585
v -1.398799 0.367576 0.751585
v -1.398799 0.367576 0.376340
v -1.398799 2.367577 0.376340
v -1.398799 2.564994 0.751585
v -1.398799 2.564994 0.376340
v 0.721530 2.367577 0.751586
v -0.154115 2.367577 0.751586
v -0.154115 2.367577 1.609387
v 0.721530 2.367577 1.609388
v 1.040263 0.248807 0.272218
v 1.040263 0.248807 0.647463
v 0.847617 2.367577 0.376341
v 0.847617 2.367577 0.751586
vt 0.621979 0.472746
vt 0.552668 0.563861
vt 0.509305 0.466179
vt 0.572372 0.434420
vt 0.680542 0.284713
vt 0.663987 0.384082
vt 0.657294 0.376537
vt 0.672132 0.293081
vt 0.542379 0.629964
vt 0.219126 0.535858
vt 0.322170 0.509618
vt 0.552947 0.000079
vt 0.472304 0.125581
vt 0.337953 0.152350
vt 0.219126 0.102689
vt 0.249672 0.143584
vt 0.252342 0.478945
vt 0.362354 0.430056
vt 0.334358 0.431508
vt 0.317334 0.167693
vt 0.846497 0.186785
vt 0.640893 0.138757
vt 0.999921 0.100008
vt 0.580582 0.178499
vt 0.619663 0.374572
vt 0.639367 0.283552
vt 0.644263 0.289907
vt 0.628174 0.372559
vt 0.780409 0.463479
vt 0.869380 0.200164
vt 0.802129 0.467231
vt 0.531337 0.375530
vt 0.511000 0.376466
vt 0.513538 0.370875
vt 0.527170 0.371501
vt 0.522148 0.277103
vt 0.551661 0.278402
vt 0.543668 0.285080
vt 0.528074 0.286261
vt 0.951446 0.179152
vt 0.365449 0.461997
vt 0.774132 0.488524
vt 0.803077 0.539011
vt 0.644337 0.388924
vt 0.626909 0.383431
vt 0.576401 0.410527
vt 0.653037 0.450995
vt 0.482289 0.440739
vt 0.495125 0.368396
vt 0.541226 0.367251
vt 0.911989 0.572536
vt 0.532307 0.363588
vt 0.507964 0.363708
vt 0.671125 0.293457
vt 0.655146 0.375885
vt 0.629581 0.372222
vt 0.646329 0.290555
vt 0.643378 0.384255
vt 0.630864 0.379723
vt 0.879983 0.514658
vt 0.814692 0.518859
vt 0.792526 0.486019
vt 0.345684 0.460221
vt 0.306721 0.488664
vt 0.581138 0.354495
vt 0.581178 0.355172
vt 0.542962 0.367385
vt 0.999902 0.962572
vt 0.000098 0.962572
vt 0.000098 0.000098
vt 0.999902 0.000098
vt 0.576269 0.409073
vt 0.618039 0.374711
vt 0.999920 0.641362
vt 0.050426 0.641382
vt 0.000080 0.000099
vt 0.949574 0.000080
vt 0.000094 0.000094
vt 0.999906 0.000094
vt 0.999906 0.880985
vt 0.000094 0.880985
vt 0.460879 0.000068
vt 0.403392 0.999932
vt 0.000068 0.999929
vt 0.000075 0.059564
vt 0.369175 0.000061
vt 0.369175 0.999939
vt 0.000061 0.999939
vt 0.505682 0.000071
vt 0.505682 0.999929
vt 0.000071 0.999929
vt 0.000071 0.000071
vt 0.000070 0.999930
vt 0.000070 0.000070
vt 0.486805 0.000070
vt 0.486805 0.999930
vt 0.999853 0.000147
vt 0.999853 0.369691
vt 0.841355 0.369691
vt 0.841355 0.000147
vt 0.000089 0.000089
vt 0.999911 0.000089
vt 0.999911 0.787694
vt 0.000089 0.787694
vt 0.506071 0.000203
vt 0.505616 0.999929
vt 0.000071 0.999796
vt 0.000527 0.000071
vt 0.818828 0.000147
vt 0.818828 0.158645
vt 0.657033 0.158645
vt 0.657033 0.000147
vt 0.999914 0.742838
vt 0.000086 0.742839
vt 0.000086 0.000087
vt 0.999913 0.000086
vt 0.818828 0.528189
vt 0.657033 0.528189
vt 0.000076 0.999924
vt 0.000076 0.000076
vt 0.577337 0.000076
vt 0.577337 0.999924
vt 0.000000 0.000000
vt 0.000000 0.000000
vt 0.000000 0.000000
vt 0.000000 0.000000
vt 0.999919 0.664176
vt 0.000082 0.664176
vt 0.000081 0.000082
vt 0.999918 0.000081
vn 0.0000 1.0000 0.0000
vn 0.0000 0.0491 -0.9988
vn 0.0000 0.0000 -1.0000
vn -0.0056 -0.9999 -0.0111
vn -0.0000 -0.0000 1.0000
vn 0.0000 -1.0000 -0.0000
vn 0.0000 -0.9997 -0.0241
vn -0.0000 -0.0491 0.9988
vn 1.0000 -0.0000 0.0000
vn -0.0000 -0.9990 0.0441
vn -0.1087 -0.9941 -0.0073
vn -1.0000 0.0000 -0.0000
vn 0.9967 0.0055 0.0810
vn -0.9967 -0.0055 -0.0810
vn 0.9959 0.0906 0.0000
vn -0.0104 -0.9999 -0.0000
vn 0.9938 0.0439 0.1023
vn 0.0302 -0.0111 0.9995
vn 0.9904 0.0496 -0.1293
vn -0.0538 -0.9968 0.0594
vn -0.0263 -0.0115 0.9996
vn -0.0648 -0.9952 -0.0739
usemtl Material.001
s off
f 46/21/7 52/22/7 51/23/7 43/24/7
usemtl Material.005
f 23/25/8 24/26/8 83/27/8 81/28/8
f 32/29/9 22/30/9 45/31/9 52/22/9
f 31/32/10 30/33/10 18/34/10 21/35/10
f 22/30/9 21/35/9 73/36/9 74/37/9
f 18/34/11 20/38/11 71/39/11 72/40/11
f 35/41/12 40/42/12 31/32/12 25/43/12
f 40/42/13 39/44/13 30/33/13 31/32/13
f 19/45/14 17/46/14 82/47/14 84/48/14
f 37/49/15 35/41/15 65/50/15 67/51/15
f 49/52/7 50/53/7 57/54/7 58/55/7
f 26/56/16 36/57/16 53/58/16 54/59/16
f 39/44/12 36/57/12 26/56/12 30/33/12
f 35/41/12 25/43/12 66/60/12 65/50/12
f 23/25/17 17/46/17 39/44/17 40/42/17
f 52/22/7 45/31/7 44/61/7 51/23/7
f 47/62/7 48/63/7 52/22/7 46/21/7
f 43/24/7 51/23/7 50/53/7 49/52/7
f 41/64/7 46/21/7 43/24/7 42/65/7
f 33/66/11 19/45/11 42/65/11 43/24/11
f 34/67/15 37/49/15 47/62/15 46/21/15
f 29/68/18 28/69/18 50/53/18 51/23/18
f 24/26/9 34/67/9 46/21/9 41/64/9
f 20/38/11 29/68/11 51/23/11 44/61/11
f 38/70/15 33/66/15 43/24/15 49/52/15
f 27/71/18 32/29/18 52/22/18 48/63/18
f 53/58/11 55/72/11 56/73/11 54/59/11
f 56/73/11 55/72/11 58/55/11 57/54/11
f 36/57/19 38/70/19 55/72/19 53/58/19
f 28/69/20 26/56/20 54/59/20 56/73/20
f 50/53/18 28/69/18 56/73/18 57/54/18
f 38/70/15 49/52/15 58/55/15 55/72/15
f 59/74/21 61/75/21 62/76/21 60/77/21
f 84/48/15 83/27/15 63/78/15 64/79/15
f 42/65/11 19/45/11 84/48/11 64/79/11
f 41/64/7 42/65/7 64/79/7 63/78/7
f 17/46/12 23/25/12 81/28/12 82/47/12
f 24/26/9 41/64/9 63/78/9 83/27/9
f 67/51/9 65/50/9 66/60/9 68/80/9
f 67/51/9 68/80/9 70/81/9 69/82/9
f 48/63/7 47/62/7 69/82/7 70/81/7
f 25/43/18 27/71/18 68/80/18 66/60/18
f 27/71/18 48/63/18 70/81/18 68/80/18
f 47/62/15 37/49/15 67/51/15 69/82/15
f 72/40/18 71/39/18 74/37/18 73/36/18
f 74/37/18 71/39/18 75/83/18 76/84/18
f 20/38/11 44/61/11 75/83/11 71/39/11
f 45/31/9 22/30/9 74/37/9 76/84/9
f 21/35/12 18/34/12 72/40/12 73/36/12
f 44/61/7 45/31/7 76/84/7 75/83/7
f 59/74/11 60/77/11 82/47/11 81/28/11
f 62/76/11 61/75/11 83/27/11 84/48/11
f 60/77/11 62/76/11 84/48/11 82/47/11
f 61/75/11 59/74/11 81/28/11 83/27/11
usemtl Material.001_azul.jpg
f 38/70/11 14/85/11 80/86/11 79/87/11
usemtl Material.001
f 25/88/12 31/89/12 21/90/12 12/91/12
f 19/45/11 33/66/11 78/92/11 77/93/11
f 33/66/11 38/70/11 79/87/11 78/92/11
f 14/85/11 19/45/11 77/93/11 80/86/11
usemtl Material.001_regalo_red.png
f 30/94/22 26/95/22 11/96/22 18/97/22
f 29/98/7 20/99/7 15/100/7 28/101/7
f 17/102/23 19/103/23 14/104/23 10/105/23
f 26/106/24 28/107/24 15/108/24 11/96/24
f 21/109/18 22/110/18 16/111/18 12/112/18
f 27/113/9 25/114/9 12/115/9 16/116/9
f 11/117/18 15/118/18 20/119/18 18/120/18
f 27/121/7 16/122/7 22/123/7 32/124/7
f 9/125/25 13/126/25 24/127/25 23/128/25
f 17/129/26 10/130/26 36/131/26 39/132/26
f 77/133/7 78/134/7 79/135/7 80/136/7
f 10/130/27 14/137/27 38/138/27 36/131/27
f 13/139/9 9/140/9 35/141/9 37/142/9
f 9/143/28 23/144/28 40/145/28 35/146/28
f 13/147/7 37/148/7 34/149/7 24/150/7
o Plane.001
v -0.064919 3.350649 0.750259
v 0.141395 3.350649 0.750259
v -0.064919 3.350649 0.361598
v 0.141395 3.350649 0.361598
v 0.323742 3.350649 0.750259
v 0.117427 3.350649 0.750259
v 0.323742 3.350649 0.361598
v 0.117427 3.350649 0.361598
v 0.323742 3.350649 0.750259
v 0.117427 3.350649 0.750259
v 0.323742 3.350649 0.361598
v 0.117427 3.350649 0.361598
v -0.064919 3.350649 0.750259
v 0.141395 3.350649 0.750259
v -0.064919 3.350649 0.361598
v 0.141395 3.350649 0.361598
vn 0.0000 1.0000 0.0000
usemtl None
s off
f 85//29 86//29 88//29 87//29
f 89//29 91//29 92//29 90//29
f 93//29 95//29 96//29 94//29
f 97//29 98//29 100//29 99//29
