# Blender v2.79 (sub 0) OBJ File: 'REGALO.blend'
# www.blender.org
mtllib REGALO_Alex.mtl
o Cube.001_Cube
v -0.120346 2.784931 0.319140
v -0.120346 2.359742 0.319140
v -0.120346 2.784931 0.744328
v -0.120346 2.359742 0.744328
v -0.545534 2.784931 0.319140
v -0.545534 2.359742 0.319140
v -0.545534 2.784931 0.744328
v -0.545534 2.359742 0.744328
vn 1.0000 0.0000 0.0000
vn 0.0000 0.0000 1.0000
vn -1.0000 0.0000 0.0000
vn 0.0000 0.0000 -1.0000
vn 0.0000 1.0000 0.0000
vn 0.0000 -1.0000 0.0000
usemtl Material.003
s off
f 1//1 3//1 4//1 2//1
f 3//2 7//2 8//2 4//2
f 7//3 5//3 6//3 8//3
f 5//4 1//4 2//4 6//4
f 3//5 1//5 5//5 7//5
f 8//6 6//6 2//6 4//6
o Cube_REGALO
v 0.721530 0.367576 -0.390613
v 0.721530 0.367576 1.609387
v -1.278470 0.367576 1.609387
v -1.278469 0.367576 -0.390613
v 0.721531 2.367577 -0.390612
v 0.721530 2.367577 1.609388
v -1.278470 2.367577 1.609387
v -1.278470 2.367577 -0.390613
v 0.721530 0.367576 0.751585
v -1.278470 0.367576 0.751585
v 0.721530 2.367577 0.751586
v -1.278470 2.367577 0.751585
v -1.278470 0.367576 0.376340
v -1.278470 2.367577 0.376340
v 0.721530 0.367576 0.376340
v 0.721530 2.367577 0.376341
v -0.540152 0.367576 -0.390613
v -0.540152 0.367576 1.609387
v -0.540152 2.367577 -0.383476
v -0.540152 2.367577 1.609387
v -0.540152 2.367577 0.751586
v -0.540152 0.367576 0.751585
v -0.540152 0.367576 0.376340
v -0.540152 2.367577 0.383476
v -0.154115 2.367577 0.751586
v -0.154115 2.367577 0.376340
v -0.154115 0.367576 -0.390613
v -0.154115 0.367576 1.609387
v -0.154115 2.367577 -0.390613
v -0.154115 2.367577 1.609387
v -0.154115 0.367576 0.751585
v -0.154115 0.367576 0.376340
v 0.721530 2.564994 0.376341
v 0.721530 2.564994 0.751586
v -0.154115 2.564994 0.751586
v -1.278470 2.564994 0.751585
v -1.278470 2.564994 0.376340
v -0.154115 2.564994 0.376340
v -0.154115 2.564994 -0.390613
v -0.540152 2.564994 -0.383476
v -0.154115 2.564994 1.609387
v -0.540152 2.564994 1.609387
v -0.540152 2.564994 0.751586
v -0.540152 2.564994 0.383476
v -0.154115 0.367576 1.744032
v -0.540152 0.367576 1.744032
v -0.154115 2.367577 1.744032
v -0.540152 2.367577 1.744032
v -0.540152 2.564994 1.744032
v -0.154115 2.564994 1.744032
v 0.847617 0.367576 0.376340
v 0.847617 0.367576 0.751586
v 0.847617 2.367577 0.376341
v 0.847617 2.367577 0.751586
v 0.847617 2.564994 0.376341
v 0.847617 2.564994 0.751586
v -0.154115 0.367576 -0.516184
v -0.540152 0.367576 -0.516184
v -0.154114 2.367577 -0.516183
v -0.540152 2.367577 -0.516183
v -0.154114 2.564994 -0.516183
v -0.540152 2.564994 -0.516183
v -1.398799 2.367577 0.751585
v -1.398799 0.367576 0.751585
v -1.398799 0.367576 0.376340
v -1.398799 2.367577 0.376340
v -1.398799 2.564994 0.751585
v -1.398799 2.564994 0.376340
vt 0.063064 0.000025
vt 0.063065 0.999975
vt 0.000025 0.999975
vt 0.000025 0.000025
vt 0.000000 0.000000
vt 0.000000 0.000000
vt 0.000000 0.000000
vt 0.000000 0.000000
vt 0.000000 0.000000
vt 0.000000 0.000000
vt 0.000000 0.000000
vt 0.000000 0.000000
vt 0.000000 0.000000
vt 0.000000 0.000000
vt 0.000000 0.000000
vt 0.000000 0.000000
vt 0.000000 0.000000
vt 0.000000 0.000000
vt 0.000000 0.000000
vt 0.000000 0.000000
vt 0.000000 0.000000
vt 0.000000 0.000000
vt 0.000000 0.000000
vt 0.000000 0.000000
vt 0.000000 0.000000
vt 0.000000 0.000000
vt 0.000000 0.000000
vt 0.000000 0.000000
vt 0.000000 0.000000
vt 0.000000 0.000000
vt 0.000000 0.000000
vt 0.000000 0.000000
vt 0.000000 0.000000
vt 0.000000 0.000000
vt 0.000000 0.000000
vt 0.000000 0.000000
vt 0.000000 0.000000
vt 0.000000 0.000000
vt 0.000000 0.000000
vt 0.000000 0.000000
vt 0.000000 0.000000
vt 0.000000 0.000000
vt 0.000000 0.000000
vt 0.000000 0.000000
vt 0.000000 0.000000
vt 0.000000 0.000000
vt 0.000000 0.000000
vt 0.000000 0.000000
vt 0.000000 0.000000
vt 0.000000 0.000000
vt 0.000000 0.000000
vt 0.000000 0.000000
vt 0.000000 0.000000
vt 0.000000 0.000000
vt 0.000000 0.000000
vt 0.000000 0.000000
vt 0.000000 0.000000
vt 0.000000 0.000000
vt 0.000000 0.000000
vt 0.000000 0.000000
vt 0.000000 0.000000
vt 0.000000 0.000000
vt 0.000000 0.000000
vt 0.000000 0.000000
vt 0.000000 0.000000
vt 0.000000 0.000000
vt 0.000000 0.000000
vt 0.000000 0.000000
vt 0.000000 0.000000
vt 0.000000 0.000000
vt 0.000000 0.000000
vn 0.0000 0.0000 -1.0000
vn 0.0097 0.0000 -1.0000
vn 0.0000 -1.0000 -0.0000
vn -0.0000 -0.0000 1.0000
vn 1.0000 -0.0000 0.0000
vn 0.0000 1.0000 -0.0000
vn -1.0000 0.0000 -0.0000
vn 0.0048 0.0018 -1.0000
usemtl Material.005
s off
f 23/1/7 24/2/7 61/3/7 59/4/7
f 32/5/8 22/6/8 45/7/8 52/8/8
f 31/9/9 30/10/9 18/11/9 21/12/9
f 22/6/7 21/12/7 73/13/7 74/14/7
f 18/11/10 20/15/10 71/16/10 72/17/10
f 35/18/9 40/19/9 31/9/9 25/20/9
f 40/19/9 39/21/9 30/10/9 31/9/9
f 19/22/10 17/23/10 60/24/10 62/25/10
f 37/26/11 35/18/11 65/27/11 67/28/11
f 49/29/12 50/30/12 57/31/12 58/32/12
f 26/33/9 36/34/9 53/35/9 54/36/9
f 39/21/9 36/34/9 26/33/9 30/10/9
f 35/18/9 25/20/9 66/37/9 65/27/9
f 23/38/9 17/23/9 39/21/9 40/19/9
f 52/8/12 45/7/12 44/39/12 51/40/12
f 47/41/12 48/42/12 52/8/12 46/43/12
f 46/43/12 52/8/12 51/40/12 43/44/12
f 43/44/12 51/40/12 50/30/12 49/29/12
f 41/45/12 46/43/12 43/44/12 42/46/12
f 33/47/10 19/22/10 42/46/10 43/44/10
f 34/48/11 37/26/11 47/41/11 46/43/11
f 29/49/13 28/50/13 50/30/13 51/40/13
f 24/51/7 34/48/7 46/43/7 41/45/7
f 20/15/10 29/49/10 51/40/10 44/39/10
f 38/52/11 33/47/11 43/44/11 49/29/11
f 27/53/13 32/5/13 52/8/13 48/42/13
f 53/35/10 55/54/10 56/55/10 54/36/10
f 56/55/10 55/54/10 58/32/10 57/31/10
f 36/34/11 38/52/11 55/54/11 53/35/11
f 28/50/13 26/33/13 54/36/13 56/55/13
f 50/30/13 28/50/13 56/55/13 57/31/13
f 38/52/11 49/29/11 58/32/11 55/54/11
f 59/4/11 61/56/11 62/25/11 60/24/11
f 62/25/11 61/56/11 63/57/11 64/58/11
f 42/46/10 19/22/10 62/25/10 64/58/10
f 41/45/12 42/46/12 64/58/12 63/57/12
f 17/23/9 23/38/9 59/4/9 60/24/9
f 24/51/7 41/45/7 63/57/7 61/56/7
f 67/28/7 65/27/7 66/37/7 68/59/7
f 67/28/7 68/59/7 70/60/7 69/61/7
f 48/42/12 47/41/12 69/61/12 70/60/12
f 25/20/13 27/53/13 68/59/13 66/37/13
f 27/53/13 48/42/13 70/60/13 68/59/13
f 47/41/11 37/26/11 67/28/11 69/61/11
f 72/17/13 71/16/13 74/14/13 73/13/13
f 74/14/13 71/16/13 75/62/13 76/63/13
f 20/15/10 44/39/10 75/62/10 71/16/10
f 45/7/7 22/6/7 74/14/7 76/63/7
f 21/12/9 18/11/9 72/17/9 73/13/9
f 44/39/12 45/7/12 76/63/12 75/62/12
usemtl Material.006
f 30/10/9 26/33/9 11/64/9 18/11/9
f 29/49/12 20/15/12 15/65/12 28/50/12
f 17/23/11 19/22/11 14/66/11 10/67/11
f 26/33/10 28/50/10 15/65/10 11/64/10
f 21/12/13 22/6/13 16/68/13 12/69/13
f 27/53/14 25/20/14 12/69/14 16/68/14
f 11/64/13 15/65/13 20/15/13 18/11/13
f 25/20/9 31/9/9 21/12/9 12/69/9
f 27/53/12 16/68/12 22/6/12 32/5/12
f 9/70/11 13/71/11 24/51/11 23/38/11
f 17/23/9 10/67/9 36/34/9 39/21/9
f 19/22/12 33/47/12 38/52/12 14/66/12
f 10/67/10 14/66/10 38/52/10 36/34/10
f 13/71/7 9/70/7 35/18/7 37/26/7
f 9/70/9 23/38/9 40/19/9 35/18/9
f 13/71/12 37/26/12 34/48/12 24/51/12
o Plane.001
v -0.064919 3.350649 0.750259
v 0.141395 3.350649 0.750259
v -0.064919 3.350649 0.361598
v 0.141395 3.350649 0.361598
v 0.323742 3.350649 0.750259
v 0.117427 3.350649 0.750259
v 0.323742 3.350649 0.361598
v 0.117427 3.350649 0.361598
v 0.323742 3.350649 0.750259
v 0.117427 3.350649 0.750259
v 0.323742 3.350649 0.361598
v 0.117427 3.350649 0.361598
v -0.064919 3.350649 0.750259
v 0.141395 3.350649 0.750259
v -0.064919 3.350649 0.361598
v 0.141395 3.350649 0.361598
vn 0.0000 1.0000 0.0000
usemtl None
s off
f 77//15 78//15 80//15 79//15
f 81//15 83//15 84//15 82//15
f 85//15 87//15 88//15 86//15
f 89//15 90//15 92//15 91//15
