# Blender v2.79 (sub 0) OBJ File: 'REGALO_D.blend'
# www.blender.org
mtllib REGALO_R.mtl
o Cube.001_Cube
v -0.120346 2.784931 0.319140
v -0.120346 2.359742 0.319140
v -0.120346 2.784931 0.744328
v -0.120346 2.359742 0.744328
v -0.545534 2.784931 0.319140
v -0.545534 2.359742 0.319140
v -0.545534 2.784931 0.744328
v -0.545534 2.359742 0.744328
vt 0.000000 0.000000
vt 0.000000 1.000000
vt 1.000000 1.000000
vt 1.000000 0.000000
vt 0.000000 0.000000
vt 0.000000 1.000000
vt 1.000000 1.000000
vt 1.000000 0.000000
vt 0.000000 0.000000
vt 0.000000 1.000000
vt 1.000000 1.000000
vt 1.000000 0.000000
vt 0.000000 0.000000
vt 0.000000 1.000000
vt 1.000000 1.000000
vt 1.000000 0.000000
vt 1.000000 1.000000
vt 1.000000 0.000000
vt 0.000000 0.000000
vt 0.000000 1.000000
vn 1.0000 0.0000 0.0000
vn 0.0000 0.0000 1.0000
vn -1.0000 0.0000 0.0000
vn 0.0000 0.0000 -1.0000
vn 0.0000 1.0000 0.0000
vn 0.0000 -1.0000 0.0000
usemtl Material.003
s off
f 1/1/1 3/2/1 4/3/1 2/4/1
f 3/5/2 7/6/2 8/7/2 4/8/2
f 7/9/3 5/10/3 6/11/3 8/12/3
f 5/13/4 1/14/4 2/15/4 6/16/4
f 3/5/5 1/14/5 5/17/5 7/18/5
f 8/19/6 6/20/6 2/15/6 4/8/6
o Cube_REGALO
v 0.721530 0.367576 -0.390613
v 0.721530 0.367576 1.609387
v -1.278470 0.367576 1.609387
v -1.278469 0.367576 -0.390613
v 0.721531 2.367577 -0.390612
v 0.721530 2.367577 1.609388
v -1.278470 2.367577 1.609387
v -1.278470 2.367577 -0.390613
v 0.914177 0.248807 0.647463
v -1.278470 0.367576 0.751585
v 0.721530 2.367577 0.751586
v -1.278470 2.367577 0.751585
v -1.278470 0.367576 0.376340
v -1.278470 2.367577 0.376340
v 0.914177 0.248807 0.272218
v 0.721530 2.367577 0.376341
v -0.540152 0.367576 -0.390613
v -0.514527 0.359622 1.563923
v -0.540152 2.367577 -0.390613
v -0.540152 2.367577 1.609387
v -0.540152 2.367577 0.751586
v -0.514526 0.359622 0.706122
v -0.540152 0.367576 0.376340
v -0.540152 2.367577 0.376340
v -0.154115 2.367577 0.751586
v -0.154115 2.367577 0.376340
v -0.154115 0.367576 -0.390613
v -0.128489 0.359622 1.563923
v -0.154115 2.367577 -0.390613
v -0.154115 2.367577 1.609387
v -0.128489 0.359622 0.706122
v -0.154115 0.367576 0.376340
v 0.721530 2.564994 0.376341
v 0.721530 2.564994 0.751586
v -0.154115 2.564994 0.751586
v -1.278470 2.564994 0.751585
v -1.278470 2.564994 0.376340
v -0.154115 2.564994 0.376340
v -0.154115 2.564994 -0.390613
v -0.540152 2.564994 -0.390613
v -0.154115 2.564994 1.609387
v -0.540152 2.564994 1.609387
v -0.540152 2.564994 0.751586
v -0.540152 2.564994 0.376340
v -0.154115 0.367576 1.744032
v -0.540152 0.367576 1.744032
v -0.154115 2.367577 1.744032
v -0.540152 2.367577 1.744032
v -0.540152 2.564994 1.744032
v -0.154115 2.564994 1.744032
v 1.040263 0.248807 0.272218
v 1.040263 0.248807 0.647463
v 0.847617 2.367577 0.376341
v 0.847617 2.367577 0.751586
v 0.847617 2.564994 0.376341
v 0.847617 2.564994 0.751586
v -0.154115 0.367576 -0.516184
v -0.540152 0.367576 -0.516184
v -0.154114 2.367577 -0.516183
v -0.540152 2.367577 -0.516183
v -0.154114 2.564994 -0.516183
v -0.540152 2.564994 -0.516183
v -1.398799 2.367577 0.751585
v -1.398799 0.367576 0.751585
v -1.398799 0.367576 0.376340
v -1.398799 2.367577 0.376340
v -1.398799 2.564994 0.751585
v -1.398799 2.564994 0.376340
v 0.721530 2.367577 0.751586
v -0.154115 2.367577 0.751586
v -0.154115 2.367577 1.609387
v 0.721530 2.367577 1.609388
v 1.040263 0.248807 0.272218
v 1.040263 0.248807 0.647463
v 0.847617 2.367577 0.376341
v 0.847617 2.367577 0.751586
vt 0.356553 0.490080
vt 0.310941 0.490080
vt 0.310941 0.445743
vt 0.356553 0.445743
vt 0.022682 0.062400
vt 0.030095 0.109648
vt 0.007538 0.109974
vt 0.000124 0.062726
vt 0.610037 0.666625
vt 0.607129 0.333375
vt 0.612945 0.333324
vt 0.615853 0.666575
vt 0.612944 0.999876
vt 0.618760 0.999825
vt 0.607129 0.000124
vt 0.612944 0.000124
vt 0.037954 0.005344
vt 0.037955 0.999981
vt 0.000020 0.994656
vt 0.000019 0.000019
vt 0.542379 0.629964
vt 0.219126 0.535858
vt 0.322170 0.509618
vt 0.552668 0.563861
vt 0.552947 0.000079
vt 0.472304 0.125581
vt 0.337953 0.152350
vt 0.219126 0.102689
vt 0.249672 0.143584
vt 0.252342 0.478945
vt 0.362354 0.430056
vt 0.334358 0.431508
vt 0.317334 0.167693
vt 0.999912 0.777951
vt 0.000088 0.777951
vt 0.000088 0.000088
vt 0.999912 0.000088
vt 0.640893 0.138757
vt 0.580582 0.178499
vt 0.619663 0.374572
vt 0.639367 0.283552
vt 0.644263 0.289907
vt 0.628174 0.372559
vt 0.780409 0.463479
vt 0.846497 0.186785
vt 0.869380 0.200164
vt 0.802129 0.467231
vt 0.531337 0.375530
vt 0.511000 0.376466
vt 0.513538 0.370875
vt 0.527170 0.371501
vt 0.999917 0.695571
vt 0.000083 0.695571
vt 0.000084 0.000083
vt 0.999917 0.000083
vt 0.999921 0.100008
vt 0.951446 0.179152
vt 0.680542 0.284713
vt 0.365449 0.461997
vt 0.509305 0.466179
vt 0.000057 0.000057
vt 0.325663 0.000057
vt 0.325662 0.999943
vt 0.000057 0.999943
vt 0.572372 0.434420
vt 0.644337 0.388924
vt 0.621979 0.472746
vt 0.626909 0.383431
vt 0.576401 0.410527
vt 0.653037 0.450995
vt 0.774132 0.488524
vt 0.482289 0.440739
vt 0.495125 0.368396
vt 0.999941 0.348497
vt 0.000059 0.348498
vt 0.000059 0.000060
vt 0.999941 0.000059
vt 0.541226 0.367251
vt 0.911989 0.572536
vt 0.803077 0.539011
vt 0.543668 0.285080
vt 0.532307 0.363588
vt 0.507964 0.363708
vt 0.528074 0.286261
vt 0.016798 0.358139
vt 0.000124 0.357640
vt 0.522148 0.277103
vt 0.112892 0.000034
vt 0.112892 0.991429
vt 0.000034 0.999966
vt 0.000034 0.008571
vt 0.000090 0.000091
vt 0.999910 0.000090
vt 0.999910 0.813131
vt 0.000090 0.813131
vt 0.000064 0.999936
vt 0.000064 0.000064
vt 0.413215 0.000064
vt 0.413215 0.999936
vt 0.630864 0.379723
vt 0.643378 0.384255
vt 0.672132 0.293081
vt 0.413214 0.000064
vt 0.413214 0.999936
vt 0.000064 0.999936
vt 0.000064 0.000064
vt 0.879983 0.514658
vt 0.814692 0.518859
vt 0.792526 0.486019
vt 0.345684 0.460221
vt 0.306721 0.488664
vt 0.671125 0.293457
vt 0.646329 0.290555
vt 0.834727 0.999879
vt 0.042119 0.999909
vt 0.000091 0.000121
vt 0.792700 0.000091
vt 0.000078 0.000078
vt 0.607704 0.000078
vt 0.607704 0.999922
vt 0.000078 0.999922
vt 0.325429 0.000057
vt 0.284838 0.999943
vt 0.000057 0.999940
vt 0.000062 0.059554
vt 0.606881 0.099001
vt 0.602312 0.357040
vt 0.511694 0.301946
vt 0.530452 0.153355
vt 0.383491 0.000062
vt 0.383491 0.999938
vt 0.000062 0.999938
vt 0.000062 0.000062
vt 0.000070 0.999930
vt 0.000070 0.000070
vt 0.486805 0.000070
vt 0.486805 0.999930
vt 0.302856 0.000055
vt 0.302856 0.999945
vt 0.000055 0.999945
vt 0.000055 0.000055
vt 0.733415 0.999914
vt 0.000086 0.999914
vt 0.000086 0.000086
vt 0.733415 0.000086
vt 0.000082 0.000082
vt 0.679679 0.000082
vt 0.679679 0.999918
vt 0.000083 0.999918
vt 0.229664 0.048477
vt 0.254082 0.986688
vt 0.000050 0.999950
vt 0.000050 0.000050
vt 0.652124 0.999919
vt 0.000081 0.810939
vt 0.030701 0.000081
vt 0.608440 0.000081
vt 0.720720 0.999915
vt 0.000085 0.999915
vt 0.000085 0.000085
vt 0.720719 0.000085
vt 0.122842 0.145804
vt 0.112312 0.324612
vt 0.000056 0.999944
vt 0.000056 0.000056
vt 0.309155 0.000056
vt 0.309155 0.999944
vt 0.868888 0.101673
vt 0.998007 0.999899
vt 0.000100 0.999900
vt 0.062916 0.000100
vt 0.806079 0.999910
vt 0.000090 0.999910
vt 0.000090 0.000090
vt 0.806079 0.000090
vt 0.112317 0.326524
vt 0.017397 0.359809
vt 0.215738 0.359359
vt 0.214942 0.361761
vt 0.576269 0.409073
vt 0.618039 0.374711
vt 0.542962 0.367385
vn 0.0000 1.0000 0.0000
vn -0.0000 -0.9990 0.0441
vn 0.0000 0.0000 1.0000
vn 0.0000 0.0491 -0.9988
vn 0.0000 0.0000 -1.0000
vn -0.0056 -0.9999 -0.0111
vn 0.0000 -1.0000 -0.0000
vn 0.0000 -0.9997 -0.0241
vn -0.0000 -0.0491 0.9988
vn 1.0000 -0.0000 0.0000
vn -0.1087 -0.9941 -0.0073
vn -1.0000 0.0000 -0.0000
vn 0.9967 0.0055 0.0810
vn -0.9967 -0.0055 -0.0810
vn 0.9959 0.0906 0.0000
vn -0.0104 -0.9999 -0.0000
vn 0.9938 0.0439 0.1023
vn 0.0302 -0.0111 0.9995
vn 0.9904 0.0496 -0.1293
vn -0.0538 -0.9968 0.0594
vn -0.0263 -0.0115 0.9996
vn -0.0648 -0.9952 -0.0739
usemtl Material.001
s off
f 46/21/7 52/22/7 51/23/7 43/24/7
usemtl Material.005
f 26/25/8 36/26/8 53/27/8 54/28/8
f 62/29/9 61/30/9 83/31/9 84/32/9
f 60/33/9 62/29/9 84/32/9 82/34/9
f 61/30/9 59/35/9 81/36/9 83/31/9
usemtl Material.005_liston1.jpg
f 23/37/10 24/38/10 83/39/10 81/40/10
f 32/41/11 22/42/11 45/43/11 52/44/11
f 31/45/12 30/46/12 18/47/12 21/48/12
f 22/42/11 21/48/11 73/49/11 74/50/11
f 18/47/9 20/51/9 71/52/9 72/53/9
f 35/54/13 40/55/13 31/56/13 25/57/13
f 40/58/14 39/59/14 30/46/14 31/45/14
f 19/60/15 17/61/15 82/62/15 84/63/15
f 37/64/16 35/65/16 65/66/16 67/67/16
f 49/68/7 50/69/7 57/70/7 58/71/7
f 39/72/13 36/73/13 26/74/13 30/75/13
f 35/65/13 25/76/13 66/77/13 65/66/13
f 23/78/17 17/61/17 39/59/17 40/58/17
f 52/44/7 45/43/7 44/79/7 51/80/7
f 47/81/7 48/82/7 52/83/7 46/84/7
f 43/85/7 51/80/7 50/69/7 49/68/7
f 41/86/7 46/87/7 43/85/7 42/88/7
f 33/89/9 19/60/9 42/88/9 43/85/9
f 34/90/16 37/64/16 47/91/16 46/87/16
f 29/92/18 28/93/18 50/69/18 51/80/18
f 24/94/11 34/95/11 46/96/11 41/97/11
f 20/51/9 29/92/9 51/80/9 44/79/9
f 38/98/16 33/89/16 43/85/16 49/68/16
f 27/99/18 32/41/18 52/44/18 48/100/18
f 53/101/9 55/102/9 56/103/9 54/104/9
f 56/103/9 55/102/9 58/71/9 57/70/9
f 36/26/19 38/105/19 55/106/19 53/27/19
f 28/93/20 26/107/20 54/104/20 56/103/20
f 50/69/18 28/93/18 56/103/18 57/70/18
f 38/98/16 49/68/16 58/71/16 55/102/16
f 59/108/21 61/109/21 62/110/21 60/111/21
f 84/112/16 83/113/16 63/114/16 64/115/16
f 42/116/9 19/117/9 84/118/9 64/119/9
f 41/86/7 42/88/7 64/120/7 63/121/7
f 17/61/13 23/78/13 81/122/13 82/62/13
f 24/123/11 41/124/11 63/125/11 83/126/11
f 67/67/11 65/66/11 66/77/11 68/127/11
f 67/67/11 68/127/11 70/128/11 69/129/11
f 48/100/7 47/91/7 69/129/7 70/128/7
f 25/76/18 27/99/18 68/127/18 66/77/18
f 27/99/18 48/100/18 70/128/18 68/127/18
f 47/91/16 37/64/16 67/67/16 69/129/16
f 72/53/18 71/52/18 74/50/18 73/49/18
f 74/50/18 71/52/18 75/130/18 76/131/18
f 20/51/9 44/79/9 75/130/9 71/52/9
f 45/43/11 22/42/11 74/50/11 76/131/11
f 21/48/13 18/47/13 72/53/13 73/49/13
f 44/79/7 45/43/7 76/131/7 75/130/7
f 59/132/9 60/133/9 82/62/9 81/122/9
usemtl Material.001
f 30/134/22 26/135/22 11/136/22 18/137/22
f 29/138/7 20/139/7 15/140/7 28/141/7
f 17/142/23 19/143/23 14/144/23 10/145/23
f 26/146/24 28/147/24 15/148/24 11/149/24
f 21/150/18 22/151/18 16/152/18 12/153/18
f 27/154/11 25/155/11 12/156/11 16/157/11
f 11/158/18 15/159/18 20/160/18 18/161/18
f 25/162/13 31/163/13 21/164/13 12/165/13
f 27/166/7 16/167/7 22/168/7 32/169/7
f 9/170/25 13/171/25 24/172/25 23/173/25
f 17/174/26 10/175/26 36/176/26 39/177/26
f 77/178/7 78/179/7 79/180/7 80/181/7
f 10/182/27 14/183/27 38/105/27 36/26/27
f 13/184/11 9/185/11 35/186/11 37/187/11
f 9/188/28 23/189/28 40/190/28 35/191/28
f 13/192/7 37/193/7 34/194/7 24/195/7
f 38/105/9 14/183/9 80/196/9 79/197/9
f 14/183/9 19/198/9 77/199/9 80/196/9
usemtl Material.001_liston1.jpg
f 19/60/9 33/89/9 78/200/9 77/201/9
f 33/89/9 38/98/9 79/202/9 78/200/9
o Plane.001
v -0.064919 3.350649 0.750259
v 0.141395 3.350649 0.750259
v -0.064919 3.350649 0.361598
v 0.141395 3.350649 0.361598
v 0.323742 3.350649 0.750259
v 0.117427 3.350649 0.750259
v 0.323742 3.350649 0.361598
v 0.117427 3.350649 0.361598
v 0.323742 3.350649 0.750259
v 0.117427 3.350649 0.750259
v 0.323742 3.350649 0.361598
v 0.117427 3.350649 0.361598
v -0.064919 3.350649 0.750259
v 0.141395 3.350649 0.750259
v -0.064919 3.350649 0.361598
v 0.141395 3.350649 0.361598
vn 0.0000 1.0000 0.0000
usemtl None
s off
f 85//29 86//29 88//29 87//29
f 89//29 91//29 92//29 90//29
f 93//29 95//29 96//29 94//29
f 97//29 98//29 100//29 99//29
