# Blender v2.79 (sub 0) OBJ File: ''
# www.blender.org
mtllib tumba.mtl
o Cube_Cube.001
v 5.219375 3.154648 5.252440
v 5.219375 3.654648 5.252440
v 5.219375 3.154648 3.252440
v 5.219375 3.654648 3.252440
v 6.119374 3.154648 5.252440
v 6.119374 3.654648 5.252440
v 6.119374 3.154648 3.252440
v 6.119374 3.654648 3.252440
vn -1.0000 0.0000 0.0000
vn 0.0000 0.0000 -1.0000
vn 1.0000 0.0000 0.0000
vn 0.0000 0.0000 1.0000
vn 0.0000 -1.0000 0.0000
vn 0.0000 1.0000 0.0000
usemtl None
s off
f 1//1 2//1 4//1 3//1
f 3//2 4//2 8//2 7//2
f 7//3 8//3 6//3 5//3
f 5//4 6//4 2//4 1//4
f 3//5 7//5 5//5 1//5
f 8//6 4//6 2//6 6//6
o Cylinder
v 5.647771 3.080543 3.450947
v 5.647771 5.324452 3.450947
v 5.656527 3.080543 3.451809
v 5.656527 5.324452 3.451809
v 5.664946 3.080543 3.454363
v 5.664946 5.324452 3.454363
v 5.672704 3.080543 3.458510
v 5.672704 5.324452 3.458510
v 5.679505 3.080543 3.464091
v 5.679505 5.324452 3.464091
v 5.685086 3.080543 3.470892
v 5.685086 5.324452 3.470892
v 5.689233 3.080543 3.478651
v 5.689233 5.324452 3.478651
v 5.691787 3.080543 3.487070
v 5.691787 5.324452 3.487070
v 5.692649 3.080543 3.495825
v 5.692649 5.324452 3.495825
v 5.691787 3.080543 3.504580
v 5.691787 5.324452 3.504580
v 5.689233 3.080543 3.512999
v 5.689233 5.324452 3.512999
v 5.685086 3.080543 3.520758
v 5.685086 5.324452 3.520758
v 5.679505 3.080543 3.527559
v 5.679505 5.324452 3.527559
v 5.672704 3.080543 3.533140
v 5.672704 5.324452 3.533140
v 5.664946 3.080543 3.537287
v 5.664946 5.324452 3.537287
v 5.656527 3.080543 3.539841
v 5.656527 5.324452 3.539841
v 5.647771 3.080543 3.540703
v 5.647771 5.324452 3.540703
v 5.639016 3.080543 3.539841
v 5.639016 5.324452 3.539841
v 5.630597 3.080543 3.537287
v 5.630597 5.324452 3.537287
v 5.622838 3.080543 3.533140
v 5.622838 5.324452 3.533140
v 5.616038 3.080543 3.527559
v 5.616038 5.324452 3.527559
v 5.610456 3.080543 3.520758
v 5.610456 5.324452 3.520758
v 5.606309 3.080543 3.512999
v 5.606309 5.324452 3.512999
v 5.603755 3.080543 3.504580
v 5.603755 5.324452 3.504580
v 5.602893 3.080543 3.495825
v 5.602893 5.324452 3.495825
v 5.603755 3.080543 3.487069
v 5.603755 5.324452 3.487069
v 5.606309 3.080543 3.478651
v 5.606309 5.324452 3.478651
v 5.610456 3.080543 3.470892
v 5.610456 5.324452 3.470892
v 5.616038 3.080543 3.464091
v 5.616038 5.324452 3.464091
v 5.622838 3.080543 3.458510
v 5.622838 5.324452 3.458510
v 5.630597 3.080543 3.454363
v 5.630597 5.324452 3.454363
v 5.639016 3.080543 3.451809
v 5.639016 5.324452 3.451809
vn 0.0980 0.0000 -0.9952
vn 0.2903 0.0000 -0.9569
vn 0.4714 0.0000 -0.8819
vn 0.6344 0.0000 -0.7730
vn 0.7730 0.0000 -0.6344
vn 0.8819 0.0000 -0.4714
vn 0.9569 0.0000 -0.2903
vn 0.9952 0.0000 -0.0980
vn 0.9952 0.0000 0.0980
vn 0.9569 0.0000 0.2903
vn 0.8819 0.0000 0.4714
vn 0.7730 0.0000 0.6344
vn 0.6344 0.0000 0.7730
vn 0.4714 0.0000 0.8819
vn 0.2903 0.0000 0.9569
vn 0.0980 0.0000 0.9952
vn -0.0980 0.0000 0.9952
vn -0.2903 0.0000 0.9569
vn -0.4714 0.0000 0.8819
vn -0.6344 0.0000 0.7730
vn -0.7730 0.0000 0.6344
vn -0.8819 0.0000 0.4714
vn -0.9569 0.0000 0.2903
vn -0.9952 0.0000 0.0980
vn -0.9952 0.0000 -0.0980
vn -0.9569 0.0000 -0.2903
vn -0.8819 0.0000 -0.4714
vn -0.7730 0.0000 -0.6344
vn -0.6344 0.0000 -0.7730
vn -0.4714 0.0000 -0.8819
vn 0.0000 1.0000 0.0000
vn -0.2903 0.0000 -0.9569
vn -0.0980 0.0000 -0.9952
vn 0.0000 -1.0000 0.0000
usemtl None
s off
f 9//7 10//7 12//7 11//7
f 11//8 12//8 14//8 13//8
f 13//9 14//9 16//9 15//9
f 15//10 16//10 18//10 17//10
f 17//11 18//11 20//11 19//11
f 19//12 20//12 22//12 21//12
f 21//13 22//13 24//13 23//13
f 23//14 24//14 26//14 25//14
f 25//15 26//15 28//15 27//15
f 27//16 28//16 30//16 29//16
f 29//17 30//17 32//17 31//17
f 31//18 32//18 34//18 33//18
f 33//19 34//19 36//19 35//19
f 35//20 36//20 38//20 37//20
f 37//21 38//21 40//21 39//21
f 39//22 40//22 42//22 41//22
f 41//23 42//23 44//23 43//23
f 43//24 44//24 46//24 45//24
f 45//25 46//25 48//25 47//25
f 47//26 48//26 50//26 49//26
f 49//27 50//27 52//27 51//27
f 51//28 52//28 54//28 53//28
f 53//29 54//29 56//29 55//29
f 55//30 56//30 58//30 57//30
f 57//31 58//31 60//31 59//31
f 59//32 60//32 62//32 61//32
f 61//33 62//33 64//33 63//33
f 63//34 64//34 66//34 65//34
f 65//35 66//35 68//35 67//35
f 67//36 68//36 70//36 69//36
f 12//37 10//37 72//37 70//37 68//37 66//37 64//37 62//37 60//37 58//37 56//37 54//37 52//37 50//37 48//37 46//37 44//37 42//37 40//37 38//37 36//37 34//37 32//37 30//37 28//37 26//37 24//37 22//37 20//37 18//37 16//37 14//37
f 69//38 70//38 72//38 71//38
f 71//39 72//39 10//39 9//39
f 9//40 11//40 13//40 15//40 17//40 19//40 21//40 23//40 25//40 27//40 29//40 31//40 33//40 35//40 37//40 39//40 41//40 43//40 45//40 47//40 49//40 51//40 53//40 55//40 57//40 59//40 61//40 63//40 65//40 67//40 69//40 71//40
o Cylinder.001
v 5.226851 4.320424 3.736584
v 6.067169 4.175422 3.214243
v 5.229013 4.321254 3.739832
v 6.069331 4.176252 3.217491
v 5.231122 4.322633 3.742842
v 6.071440 4.177631 3.220500
v 5.233096 4.324506 3.745497
v 6.073413 4.179504 3.223155
v 5.234859 4.326802 3.747695
v 6.075176 4.181800 3.225354
v 5.236343 4.329433 3.749353
v 6.076661 4.184431 3.227012
v 5.237492 4.332297 3.750406
v 6.077809 4.187295 3.228065
v 5.238261 4.335285 3.750814
v 6.078578 4.190283 3.228473
v 5.238621 4.338281 3.750562
v 6.078938 4.193279 3.228220
v 5.238558 4.341171 3.749658
v 6.078876 4.196168 3.227317
v 5.238074 4.343843 3.748139
v 6.078392 4.198841 3.225797
v 5.237189 4.346195 3.746061
v 6.077507 4.201193 3.223719
v 5.235935 4.348136 3.743505
v 6.076253 4.203134 3.221164
v 5.234362 4.349592 3.740570
v 6.074679 4.204590 3.218228
v 5.232529 4.350507 3.737367
v 6.072846 4.205505 3.215025
v 5.230507 4.350845 3.734020
v 6.070825 4.205843 3.211679
v 5.228374 4.350595 3.730659
v 6.068691 4.205593 3.208317
v 5.226212 4.349764 3.727411
v 6.066529 4.204762 3.205069
v 5.224103 4.348385 3.724401
v 6.064421 4.203383 3.202060
v 5.222129 4.346512 3.721746
v 6.062447 4.201510 3.199405
v 5.220366 4.344216 3.719548
v 6.060684 4.199214 3.197206
v 5.218882 4.341586 3.717890
v 6.059200 4.196583 3.195548
v 5.217733 4.338721 3.716836
v 6.058051 4.193719 3.194495
v 5.216964 4.335733 3.716428
v 6.057281 4.190732 3.194087
v 5.216604 4.332737 3.716681
v 6.056921 4.187736 3.194340
v 5.216667 4.329847 3.717584
v 6.056985 4.184845 3.195243
v 5.217151 4.327175 3.719104
v 6.057468 4.182173 3.196763
v 5.218036 4.324823 3.721182
v 6.058354 4.179821 3.198841
v 5.219290 4.322882 3.723738
v 6.059608 4.177880 3.201396
v 5.220863 4.321426 3.726673
v 6.061181 4.176424 3.204332
v 5.222696 4.320511 3.729876
v 6.063014 4.175509 3.207535
v 5.224718 4.320173 3.733222
v 6.065036 4.175171 3.210881
vn -0.0093 -0.9673 0.2535
vn 0.0723 -0.9250 0.3730
vn 0.1561 -0.8580 0.4893
vn 0.2422 -0.7615 0.6012
vn 0.3290 -0.6293 0.7041
vn 0.4119 -0.4554 0.7892
vn 0.4825 -0.2393 0.8426
vn 0.5289 0.0079 0.8486
vn 0.5417 0.2616 0.7989
vn 0.5194 0.4916 0.6990
vn 0.4691 0.6772 0.5668
vn 0.4019 0.8134 0.4206
vn 0.3263 0.9047 0.2738
vn 0.2478 0.9597 0.1322
vn 0.1687 0.9857 -0.0022
vn 0.0893 0.9874 -0.1303
vn 0.0093 0.9673 -0.2535
vn -0.0723 0.9250 -0.3730
vn -0.1561 0.8580 -0.4893
vn -0.2422 0.7615 -0.6012
vn -0.3290 0.6293 -0.7041
vn -0.4119 0.4555 -0.7892
vn -0.4825 0.2393 -0.8426
vn -0.5289 -0.0079 -0.8486
vn -0.5416 -0.2615 -0.7989
vn -0.5193 -0.4916 -0.6990
vn -0.4692 -0.6773 -0.5667
vn -0.4019 -0.8134 -0.4205
vn -0.3263 -0.9047 -0.2739
vn -0.2478 -0.9597 -0.1323
vn 0.8403 -0.1450 -0.5223
vn -0.1687 -0.9857 0.0022
vn -0.0894 -0.9874 0.1304
vn -0.8403 0.1450 0.5223
usemtl None
s off
f 73//41 74//41 76//41 75//41
f 75//42 76//42 78//42 77//42
f 77//43 78//43 80//43 79//43
f 79//44 80//44 82//44 81//44
f 81//45 82//45 84//45 83//45
f 83//46 84//46 86//46 85//46
f 85//47 86//47 88//47 87//47
f 87//48 88//48 90//48 89//48
f 89//49 90//49 92//49 91//49
f 91//50 92//50 94//50 93//50
f 93//51 94//51 96//51 95//51
f 95//52 96//52 98//52 97//52
f 97//53 98//53 100//53 99//53
f 99//54 100//54 102//54 101//54
f 101//55 102//55 104//55 103//55
f 103//56 104//56 106//56 105//56
f 105//57 106//57 108//57 107//57
f 107//58 108//58 110//58 109//58
f 109//59 110//59 112//59 111//59
f 111//60 112//60 114//60 113//60
f 113//61 114//61 116//61 115//61
f 115//62 116//62 118//62 117//62
f 117//63 118//63 120//63 119//63
f 119//64 120//64 122//64 121//64
f 121//65 122//65 124//65 123//65
f 123//66 124//66 126//66 125//66
f 125//67 126//67 128//67 127//67
f 127//68 128//68 130//68 129//68
f 129//69 130//69 132//69 131//69
f 131//70 132//70 134//70 133//70
f 76//71 74//71 136//71 134//71 132//71 130//71 128//71 126//71 124//71 122//71 120//71 118//71 116//71 114//71 112//71 110//71 108//71 106//71 104//71 102//71 100//71 98//71 96//71 94//71 92//71 90//71 88//71 86//71 84//71 82//71 80//71 78//71
f 133//72 134//72 136//72 135//72
f 135//73 136//73 74//73 73//73
f 73//74 75//74 77//74 79//74 81//74 83//74 85//74 87//74 89//74 91//74 93//74 95//74 97//74 99//74 101//74 103//74 105//74 107//74 109//74 111//74 113//74 115//74 117//74 119//74 121//74 123//74 125//74 127//74 129//74 131//74 133//74 135//74
o Cylinder.002
v 3.386433 3.080543 3.450947
v 3.386433 5.324452 3.450947
v 3.395188 3.080543 3.451809
v 3.395188 5.324452 3.451809
v 3.403607 3.080543 3.454363
v 3.403607 5.324452 3.454363
v 3.411366 3.080543 3.458510
v 3.411366 5.324452 3.458510
v 3.418167 3.080543 3.464091
v 3.418167 5.324452 3.464091
v 3.423748 3.080543 3.470892
v 3.423748 5.324452 3.470892
v 3.427895 3.080543 3.478651
v 3.427895 5.324452 3.478651
v 3.430449 3.080543 3.487070
v 3.430449 5.324452 3.487070
v 3.431311 3.080543 3.495825
v 3.431311 5.324452 3.495825
v 3.430449 3.080543 3.504580
v 3.430449 5.324452 3.504580
v 3.427895 3.080543 3.512999
v 3.427895 5.324452 3.512999
v 3.423748 3.080543 3.520758
v 3.423748 5.324452 3.520758
v 3.418167 3.080543 3.527559
v 3.418167 5.324452 3.527559
v 3.411366 3.080543 3.533140
v 3.411366 5.324452 3.533140
v 3.403607 3.080543 3.537287
v 3.403607 5.324452 3.537287
v 3.395188 3.080543 3.539841
v 3.395188 5.324452 3.539841
v 3.386433 3.080543 3.540703
v 3.386433 5.324452 3.540703
v 3.377678 3.080543 3.539841
v 3.377678 5.324452 3.539841
v 3.369259 3.080543 3.537287
v 3.369259 5.324452 3.537287
v 3.361500 3.080543 3.533140
v 3.361500 5.324452 3.533140
v 3.354699 3.080543 3.527559
v 3.354699 5.324452 3.527559
v 3.349118 3.080543 3.520758
v 3.349118 5.324452 3.520758
v 3.344971 3.080543 3.512999
v 3.344971 5.324452 3.512999
v 3.342417 3.080543 3.504580
v 3.342417 5.324452 3.504580
v 3.341555 3.080543 3.495825
v 3.341555 5.324452 3.495825
v 3.342417 3.080543 3.487069
v 3.342417 5.324452 3.487069
v 3.344971 3.080543 3.478651
v 3.344971 5.324452 3.478651
v 3.349118 3.080543 3.470892
v 3.349118 5.324452 3.470892
v 3.354699 3.080543 3.464091
v 3.354699 5.324452 3.464091
v 3.361500 3.080543 3.458510
v 3.361500 5.324452 3.458510
v 3.369259 3.080543 3.454363
v 3.369259 5.324452 3.454363
v 3.377678 3.080543 3.451809
v 3.377678 5.324452 3.451809
vn 0.0980 0.0000 -0.9952
vn 0.2903 0.0000 -0.9569
vn 0.4714 0.0000 -0.8819
vn 0.6344 0.0000 -0.7730
vn 0.7730 0.0000 -0.6344
vn 0.8819 0.0000 -0.4714
vn 0.9569 0.0000 -0.2903
vn 0.9952 0.0000 -0.0980
vn 0.9952 0.0000 0.0980
vn 0.9569 0.0000 0.2903
vn 0.8819 0.0000 0.4714
vn 0.7730 0.0000 0.6344
vn 0.6344 0.0000 0.7730
vn 0.4714 0.0000 0.8819
vn 0.2903 0.0000 0.9569
vn 0.0980 0.0000 0.9952
vn -0.0980 0.0000 0.9952
vn -0.2903 0.0000 0.9569
vn -0.4714 0.0000 0.8819
vn -0.6344 0.0000 0.7730
vn -0.7730 0.0000 0.6344
vn -0.8819 0.0000 0.4714
vn -0.9569 0.0000 0.2903
vn -0.9952 0.0000 0.0980
vn -0.9952 0.0000 -0.0980
vn -0.9569 0.0000 -0.2903
vn -0.8819 0.0000 -0.4714
vn -0.7730 0.0000 -0.6344
vn -0.6344 0.0000 -0.7730
vn -0.4714 0.0000 -0.8819
vn 0.0000 1.0000 0.0000
vn -0.2903 0.0000 -0.9569
vn -0.0980 0.0000 -0.9952
vn 0.0000 -1.0000 0.0000
usemtl None
s off
f 137//75 138//75 140//75 139//75
f 139//76 140//76 142//76 141//76
f 141//77 142//77 144//77 143//77
f 143//78 144//78 146//78 145//78
f 145//79 146//79 148//79 147//79
f 147//80 148//80 150//80 149//80
f 149//81 150//81 152//81 151//81
f 151//82 152//82 154//82 153//82
f 153//83 154//83 156//83 155//83
f 155//84 156//84 158//84 157//84
f 157//85 158//85 160//85 159//85
f 159//86 160//86 162//86 161//86
f 161//87 162//87 164//87 163//87
f 163//88 164//88 166//88 165//88
f 165//89 166//89 168//89 167//89
f 167//90 168//90 170//90 169//90
f 169//91 170//91 172//91 171//91
f 171//92 172//92 174//92 173//92
f 173//93 174//93 176//93 175//93
f 175//94 176//94 178//94 177//94
f 177//95 178//95 180//95 179//95
f 179//96 180//96 182//96 181//96
f 181//97 182//97 184//97 183//97
f 183//98 184//98 186//98 185//98
f 185//99 186//99 188//99 187//99
f 187//100 188//100 190//100 189//100
f 189//101 190//101 192//101 191//101
f 191//102 192//102 194//102 193//102
f 193//103 194//103 196//103 195//103
f 195//104 196//104 198//104 197//104
f 140//105 138//105 200//105 198//105 196//105 194//105 192//105 190//105 188//105 186//105 184//105 182//105 180//105 178//105 176//105 174//105 172//105 170//105 168//105 166//105 164//105 162//105 160//105 158//105 156//105 154//105 152//105 150//105 148//105 146//105 144//105 142//105
f 197//106 198//106 200//106 199//106
f 199//107 200//107 138//107 137//107
f 137//108 139//108 141//108 143//108 145//108 147//108 149//108 151//108 153//108 155//108 157//108 159//108 161//108 163//108 165//108 167//108 169//108 171//108 173//108 175//108 177//108 179//108 181//108 183//108 185//108 187//108 189//108 191//108 193//108 195//108 197//108 199//108
o Cylinder.003
v 3.329020 4.976498 3.926637
v 3.476582 5.515754 3.097524
v 3.332326 4.978055 3.928238
v 3.479888 5.517311 3.099125
v 3.335222 4.980009 3.930024
v 3.482785 5.519265 3.100912
v 3.337599 4.982286 3.931928
v 3.485161 5.521542 3.102815
v 3.339363 4.984797 3.933876
v 3.486925 5.524054 3.104763
v 3.340448 4.987447 3.935792
v 3.488010 5.526703 3.106679
v 3.340811 4.990134 3.937604
v 3.488373 5.529390 3.108491
v 3.340439 4.992754 3.939242
v 3.488001 5.532010 3.110129
v 3.339346 4.995206 3.940643
v 3.486908 5.534462 3.111530
v 3.337574 4.997397 3.941752
v 3.485136 5.536654 3.112639
v 3.335191 4.999242 3.942528
v 3.482754 5.538498 3.113415
v 3.332289 5.000671 3.942941
v 3.479851 5.539927 3.113828
v 3.328979 5.001627 3.942974
v 3.476542 5.540884 3.113861
v 3.325389 5.002076 3.942627
v 3.472951 5.541332 3.113514
v 3.321656 5.001999 3.941912
v 3.469218 5.541255 3.112799
v 3.317924 5.001399 3.940858
v 3.465486 5.540655 3.111745
v 3.314335 5.000300 3.939504
v 3.461897 5.539556 3.110391
v 3.311029 4.998743 3.937903
v 3.458591 5.537999 3.108790
v 3.308133 4.996789 3.936117
v 3.455695 5.536045 3.107004
v 3.305757 4.994512 3.934213
v 3.453319 5.533768 3.105100
v 3.303992 4.992001 3.932266
v 3.451554 5.531257 3.103153
v 3.302908 4.989351 3.930349
v 3.450470 5.528607 3.101236
v 3.302544 4.986664 3.928537
v 3.450106 5.525920 3.099424
v 3.302916 4.984044 3.926899
v 3.450478 5.523300 3.097786
v 3.304009 4.981592 3.925498
v 3.451571 5.520848 3.096386
v 3.305781 4.979401 3.924389
v 3.453343 5.518657 3.095276
v 3.308164 4.977556 3.923613
v 3.455726 5.516812 3.094500
v 3.311066 4.976127 3.923200
v 3.458628 5.515383 3.094088
v 3.314376 4.975171 3.923167
v 3.461938 5.514426 3.094054
v 3.317966 4.974722 3.923515
v 3.465528 5.513978 3.094402
v 3.321700 4.974799 3.924229
v 3.469262 5.514055 3.095116
v 3.325432 4.975399 3.925283
v 3.472994 5.514655 3.096170
vn 0.5399 -0.7463 -0.3893
vn 0.6584 -0.6791 -0.3245
vn 0.7665 -0.5921 -0.2487
vn 0.8618 -0.4814 -0.1598
vn 0.9376 -0.3431 -0.0563
vn 0.9828 -0.1744 0.0615
vn 0.9818 0.0215 0.1887
vn 0.9209 0.2310 0.3141
vn 0.7974 0.4310 0.4223
vn 0.6260 0.5981 0.5004
vn 0.4315 0.7192 0.5446
vn 0.2354 0.7951 0.5590
vn 0.0508 0.8331 0.5508
vn -0.1183 0.8419 0.5265
vn -0.2716 0.8282 0.4903
vn -0.4114 0.7958 0.4444
vn -0.5399 0.7463 0.3893
vn -0.6584 0.6791 0.3246
vn -0.7666 0.5921 0.2487
vn -0.8617 0.4815 0.1598
vn -0.9376 0.3431 0.0563
vn -0.9828 0.1743 -0.0615
vn -0.9818 -0.0213 -0.1887
vn -0.9208 -0.2311 -0.3141
vn -0.7974 -0.4310 -0.4223
vn -0.6261 -0.5980 -0.5004
vn -0.4314 -0.7192 -0.5446
vn -0.2355 -0.7950 -0.5590
vn -0.0508 -0.8330 -0.5509
vn 0.1182 -0.8419 -0.5265
vn 0.1476 0.5393 -0.8291
vn 0.2716 -0.8281 -0.4903
vn 0.4114 -0.7958 -0.4443
vn -0.1476 -0.5393 0.8291
usemtl None
s off
f 201//109 202//109 204//109 203//109
f 203//110 204//110 206//110 205//110
f 205//111 206//111 208//111 207//111
f 207//112 208//112 210//112 209//112
f 209//113 210//113 212//113 211//113
f 211//114 212//114 214//114 213//114
f 213//115 214//115 216//115 215//115
f 215//116 216//116 218//116 217//116
f 217//117 218//117 220//117 219//117
f 219//118 220//118 222//118 221//118
f 221//119 222//119 224//119 223//119
f 223//120 224//120 226//120 225//120
f 225//121 226//121 228//121 227//121
f 227//122 228//122 230//122 229//122
f 229//123 230//123 232//123 231//123
f 231//124 232//124 234//124 233//124
f 233//125 234//125 236//125 235//125
f 235//126 236//126 238//126 237//126
f 237//127 238//127 240//127 239//127
f 239//128 240//128 242//128 241//128
f 241//129 242//129 244//129 243//129
f 243//130 244//130 246//130 245//130
f 245//131 246//131 248//131 247//131
f 247//132 248//132 250//132 249//132
f 249//133 250//133 252//133 251//133
f 251//134 252//134 254//134 253//134
f 253//135 254//135 256//135 255//135
f 255//136 256//136 258//136 257//136
f 257//137 258//137 260//137 259//137
f 259//138 260//138 262//138 261//138
f 204//139 202//139 264//139 262//139 260//139 258//139 256//139 254//139 252//139 250//139 248//139 246//139 244//139 242//139 240//139 238//139 236//139 234//139 232//139 230//139 228//139 226//139 224//139 222//139 220//139 218//139 216//139 214//139 212//139 210//139 208//139 206//139
f 261//140 262//140 264//140 263//140
f 263//141 264//141 202//141 201//141
f 201//142 203//142 205//142 207//142 209//142 211//142 213//142 215//142 217//142 219//142 221//142 223//142 225//142 227//142 229//142 231//142 233//142 235//142 237//142 239//142 241//142 243//142 245//142 247//142 249//142 251//142 253//142 255//142 257//142 259//142 261//142 263//142
o Cylinder.004
v 3.309305 4.976498 3.926637
v 3.456867 5.515754 3.097524
v 3.312611 4.978055 3.928238
v 3.460173 5.517311 3.099125
v 3.315507 4.980009 3.930024
v 3.463069 5.519265 3.100912
v 3.317883 4.982286 3.931928
v 3.465446 5.521542 3.102815
v 3.319648 4.984797 3.933876
v 3.467210 5.524054 3.104763
v 3.320733 4.987447 3.935792
v 3.468295 5.526703 3.106679
v 3.321096 4.990134 3.937604
v 3.468658 5.529390 3.108491
v 3.320724 4.992754 3.939242
v 3.468286 5.532010 3.110129
v 3.319631 4.995206 3.940643
v 3.467193 5.534462 3.111530
v 3.317859 4.997397 3.941752
v 3.465421 5.536654 3.112639
v 3.315476 4.999242 3.942528
v 3.463038 5.538498 3.113415
v 3.312574 5.000671 3.942941
v 3.460136 5.539927 3.113828
v 3.309264 5.001627 3.942974
v 3.456826 5.540884 3.113861
v 3.305674 5.002076 3.942627
v 3.453236 5.541332 3.113514
v 3.301941 5.001999 3.941912
v 3.449503 5.541255 3.112799
v 3.298208 5.001399 3.940858
v 3.445771 5.540655 3.111745
v 3.294620 5.000300 3.939504
v 3.442182 5.539556 3.110391
v 3.291314 4.998743 3.937903
v 3.438877 5.537999 3.108790
v 3.288418 4.996789 3.936117
v 3.435980 5.536045 3.107004
v 3.286041 4.994512 3.934213
v 3.433604 5.533768 3.105100
v 3.284277 4.992001 3.932266
v 3.431839 5.531257 3.103153
v 3.283193 4.989351 3.930349
v 3.430755 5.528607 3.101236
v 3.282829 4.986664 3.928537
v 3.430391 5.525920 3.099424
v 3.283201 4.984044 3.926899
v 3.430763 5.523300 3.097786
v 3.284294 4.981592 3.925498
v 3.431856 5.520848 3.096386
v 3.286066 4.979401 3.924389
v 3.433628 5.518657 3.095276
v 3.288449 4.977556 3.923613
v 3.436011 5.516812 3.094500
v 3.291351 4.976127 3.923200
v 3.438913 5.515383 3.094088
v 3.294661 4.975171 3.923167
v 3.442223 5.514426 3.094054
v 3.298251 4.974722 3.923515
v 3.445813 5.513978 3.094402
v 3.301985 4.974799 3.924229
v 3.449547 5.514055 3.095116
v 3.305717 4.975399 3.925283
v 3.453279 5.514655 3.096170
vn 0.5399 -0.7463 -0.3893
vn 0.6584 -0.6791 -0.3245
vn 0.7665 -0.5921 -0.2487
vn 0.8618 -0.4815 -0.1598
vn 0.9376 -0.3431 -0.0563
vn 0.9828 -0.1744 0.0615
vn 0.9818 0.0215 0.1887
vn 0.9209 0.2310 0.3141
vn 0.7974 0.4310 0.4223
vn 0.6260 0.5981 0.5004
vn 0.4315 0.7192 0.5446
vn 0.2354 0.7951 0.5590
vn 0.0508 0.8330 0.5509
vn -0.1183 0.8419 0.5265
vn -0.2716 0.8281 0.4903
vn -0.4114 0.7958 0.4444
vn -0.5399 0.7463 0.3893
vn -0.6583 0.6792 0.3245
vn -0.7665 0.5921 0.2487
vn -0.8617 0.4815 0.1598
vn -0.9376 0.3431 0.0563
vn -0.9828 0.1744 -0.0615
vn -0.9818 -0.0214 -0.1887
vn -0.9209 -0.2310 -0.3141
vn -0.7974 -0.4310 -0.4223
vn -0.6260 -0.5981 -0.5004
vn -0.4314 -0.7192 -0.5446
vn -0.2355 -0.7950 -0.5590
vn -0.0508 -0.8330 -0.5509
vn 0.1182 -0.8419 -0.5265
vn 0.1476 0.5393 -0.8291
vn 0.2716 -0.8282 -0.4903
vn 0.4114 -0.7958 -0.4444
vn -0.1476 -0.5393 0.8291
usemtl None
s off
f 265//143 266//143 268//143 267//143
f 267//144 268//144 270//144 269//144
f 269//145 270//145 272//145 271//145
f 271//146 272//146 274//146 273//146
f 273//147 274//147 276//147 275//147
f 275//148 276//148 278//148 277//148
f 277//149 278//149 280//149 279//149
f 279//150 280//150 282//150 281//150
f 281//151 282//151 284//151 283//151
f 283//152 284//152 286//152 285//152
f 285//153 286//153 288//153 287//153
f 287//154 288//154 290//154 289//154
f 289//155 290//155 292//155 291//155
f 291//156 292//156 294//156 293//156
f 293//157 294//157 296//157 295//157
f 295//158 296//158 298//158 297//158
f 297//159 298//159 300//159 299//159
f 299//160 300//160 302//160 301//160
f 301//161 302//161 304//161 303//161
f 303//162 304//162 306//162 305//162
f 305//163 306//163 308//163 307//163
f 307//164 308//164 310//164 309//164
f 309//165 310//165 312//165 311//165
f 311//166 312//166 314//166 313//166
f 313//167 314//167 316//167 315//167
f 315//168 316//168 318//168 317//168
f 317//169 318//169 320//169 319//169
f 319//170 320//170 322//170 321//170
f 321//171 322//171 324//171 323//171
f 323//172 324//172 326//172 325//172
f 268//173 266//173 328//173 326//173 324//173 322//173 320//173 318//173 316//173 314//173 312//173 310//173 308//173 306//173 304//173 302//173 300//173 298//173 296//173 294//173 292//173 290//173 288//173 286//173 284//173 282//173 280//173 278//173 276//173 274//173 272//173 270//173
f 325//174 326//174 328//174 327//174
f 327//175 328//175 266//175 265//175
f 265//176 267//176 269//176 271//176 273//176 275//176 277//176 279//176 281//176 283//176 285//176 287//176 289//176 291//176 293//176 295//176 297//176 299//176 301//176 303//176 305//176 307//176 309//176 311//176 313//176 315//176 317//176 319//176 321//176 323//176 325//176 327//176
