# 3ds Max Wavefront OBJ Exporter v0.97b - (c)2007 guruware
# File Created: 25.10.2019 19:34:04

mtllib calceta_roja.mtl

#
# object norvedem_sock
#

v  -8.0623 -10.1600 2.7032
v  -11.5358 -9.9950 1.1683
v  -11.6667 -11.6608 1.1683
v  2.1656 -13.5239 1.1683
v  1.6867 -14.9935 3.0924
v  3.3302 -14.9747 1.1683
v  0.6862 -10.5611 1.1683
v  -0.3404 -12.2637 2.7252
v  1.0662 -12.0185 1.1683
v  -7.5459 -14.8512 1.1683
v  -7.3005 -13.0925 3.0252
v  -10.4501 -13.7454 1.1683
v  -4.0582 -15.6407 3.3269
v  -5.3363 -16.2869 1.1683
v  -8.1411 -11.7861 2.8309
v  -11.2583 -12.8230 1.1683
v  3.0250 -3.8090 1.4341
v  3.1811 -3.8313 1.4287
v  1.4350 -3.1771 2.4028
v  1.3456 -3.1770 2.3721
v  0.7520 -8.7628 1.1683
v  1.4413 -7.0604 1.1683
v  -0.0730 -6.4207 2.7032
v  -0.7969 -8.4262 2.7032
v  -4.7782 -0.8724 1.4311
v  -3.3263 -1.4188 2.5510
v  -3.3985 -1.3563 2.5854
v  -4.8950 -0.7947 1.4252
v  -6.3035 -4.0677 1.1683
v  -5.3094 -5.1853 2.7032
v  -4.0650 -3.1802 2.6426
v  -5.2177 -1.8598 1.1683
v  -1.4318 -19.1953 2.9873
v  1.0132 -18.4929 3.3511
v  0.1045 -17.2464 3.5437
v  -2.3081 -17.7793 3.1504
v  -6.6976 -7.1904 2.7032
v  -7.7729 -5.8439 1.1683
v  -10.7653 -8.7289 1.1683
v  4.2116 -22.1324 1.1683
v  4.0155 -19.4073 2.6764
v  1.9218 -19.7394 2.9586
v  2.6160 -22.8847 1.1683
v  0.7806 -22.8697 1.1683
v  -0.5554 -20.6113 2.5424
v  5.4896 -19.4749 1.1683
v  5.3479 -17.8603 1.1683
v  3.6705 -17.9681 3.0442
v  -1.4453 -15.2878 3.7118
v  2.8925 -16.6621 3.1899
v  -1.0988 -2.2571 2.8917
v  -1.0894 -2.2200 2.9338
v  -4.0757 -12.2221 3.4402
v  -4.3969 -10.9950 3.2406
v  -4.1320 -8.9036 3.2406
v  -3.2038 -6.9302 3.2606
v  -0.8653 -10.7595 2.7032
v  4.3205 -2.0757 1.4031
v  5.1304 -0.1585 1.3603
v  3.5766 0.1124 1.6659
v  2.6920 -1.4526 2.1745
v  -3.3383 -1.4136 0.6099
v  -3.4072 -1.3514 0.5778
v  -1.0906 -2.2186 0.3148
v  -1.0958 -2.2566 0.3684
v  -3.0040 -13.4555 0.0974
v  -1.6401 -15.5854 0.2069
v  1.9198 -19.7374 0.5900
v  -2.2216 -5.0831 0.1331
v  -3.1290 -7.2139 0.0501
v  -0.8263 -22.2930 1.1683
v  -3.9372 -9.6605 0.0497
v  5.0838 -20.9535 1.1683
v  3.3626 -3.7747 0.9341
v  3.5566 -3.8500 1.1424
v  3.3921 -3.9104 1.1565
v  3.2027 -3.8389 0.9520
v  4.5827 -16.4175 1.1683
v  -0.2184 -17.3494 0.3033
v  -3.6984 -11.7279 0.0497
v  1.5465 -3.0831 2.4237
v  -0.4051 -0.2954 2.6251
v  -1.0545 -2.1177 2.9624
v  0.1720 1.3996 1.9013
v  -2.0671 2.3589 1.5722
v  -2.8334 0.5810 2.3677
v  -3.4232 -1.2601 2.6055
v  -5.1105 -0.5811 1.1424
v  -4.6333 1.2479 1.1542
v  -4.5083 1.2047 0.9962
v  -4.9908 -0.6248 0.9860
v  1.8053 -3.3494 0.6506
v  3.2280 -3.8853 1.1683
v  3.0453 -3.8165 0.9677
v  -2.1796 -5.1007 3.2006
v  -5.0363 -0.7416 1.1565
v  -4.9204 -0.7850 1.0029
v  -4.9650 -0.6397 1.4156
v  3.3399 -3.7674 1.4199
v  5.3735 -0.0727 1.1683
v  4.5172 -2.1510 1.1550
v  4.3104 -2.0696 0.9414
v  5.2328 0.1707 0.9866
v  -4.4780 1.1904 1.4048
v  -3.5600 3.3066 1.3496
v  -3.6499 3.5251 1.1683
v  -3.4904 3.5687 1.0385
v  -0.3791 -0.2235 0.3102
v  2.9061 -1.5168 0.5533
v  2.0452 -3.2632 0.5909
v  -1.0369 -2.0665 0.2587
v  3.9604 1.1154 0.7855
v  0.6919 2.7638 0.7204
v  1.9171 -3.3537 0.6218
v  -2.8768 0.6404 0.5186
v  -1.7044 3.3891 0.8075
v  -3.4286 -1.1944 0.5437
v  -4.8030 -0.8630 1.0175
v  -4.9152 -0.8208 1.1683
v  -3.5182 3.4217 1.1306
v  -1.8858 2.7905 1.0796
v  0.4320 1.8795 1.0783
v  3.7685 0.4903 1.1054
v  5.1816 -0.0207 1.1400
v  0.7841 -13.7279 2.9139
v  -3.1950 -13.4892 3.6397
v  -3.8063 -18.2423 1.1683
v  -3.0864 -19.9127 1.1683
v  -2.1000 -21.3500 1.1683
v  0.9250 -18.6020 0.4315
# 130 vertices

vn -0.3043 0.1494 0.9408
vn -0.9543 0.2735 -0.1200
vn -0.9875 -0.0896 -0.1299
vn 0.7543 0.5443 -0.3671
vn 0.4296 0.3526 0.8313
vn 0.7323 0.5680 -0.3756
vn 0.9505 0.0955 -0.2956
vn 0.4150 0.2993 0.8592
vn 0.8391 0.4177 -0.3483
vn -0.5062 -0.7932 -0.3384
vn -0.3128 -0.2833 0.9066
vn -0.6405 -0.7418 -0.1986
vn -0.3691 -0.3567 0.8582
vn -0.6376 -0.6798 -0.3624
vn -0.3132 0.0074 0.9496
vn -0.8864 -0.4356 -0.1563
vn -0.1271 -0.9317 0.3402
vn 0.1062 -0.8365 0.5375
vn 0.0185 -0.6704 0.7417
vn -0.1535 -0.8149 0.5589
vn 0.9379 -0.2025 -0.2817
vn 0.8660 -0.4289 -0.2570
vn 0.4089 -0.1479 0.9005
vn 0.4210 -0.0948 0.9021
vn -0.5426 -0.7991 0.2587
vn -0.4139 -0.7347 0.5375
vn -0.4749 -0.5226 0.7080
vn -0.6942 -0.5740 0.4343
vn -0.8048 0.5242 -0.2784
vn -0.3830 0.2572 0.8872
vn -0.3751 0.2185 0.9008
vn -0.9243 0.2705 -0.2691
vn -0.3432 -0.3475 0.8726
vn 0.0365 -0.1904 0.9810
vn 0.0186 -0.0733 0.9971
vn -0.3932 -0.3317 0.8575
vn -0.3420 0.2329 0.9104
vn -0.7752 0.5835 -0.2419
vn -0.8224 0.5471 -0.1559
vn 0.5810 -0.7958 -0.1707
vn 0.4646 -0.2206 0.8576
vn 0.0936 -0.3600 0.9282
vn 0.2123 -0.9662 -0.1460
vn -0.1219 -0.9767 -0.1769
vn -0.2189 -0.4705 0.8548
vn 0.9519 -0.0983 -0.2901
vn 0.9259 0.2266 -0.3021
vn 0.4819 0.0630 0.8739
vn 0.0260 0.0263 0.9993
vn 0.4358 0.2509 0.8643
vn -0.2555 -0.7428 0.6188
vn -0.1705 -0.5152 0.8399
vn 0.0003 0.1222 0.9925
vn -0.0075 0.0703 0.9975
vn -0.0139 0.0215 0.9997
vn 0.0035 0.0265 0.9996
vn 0.4202 0.0818 0.9037
vn 0.5375 -0.2213 0.8137
vn 0.5620 -0.1804 0.8072
vn 0.2721 0.1100 0.9559
vn 0.2880 0.0345 0.9570
vn -0.3570 -0.7294 -0.5835
vn -0.3487 -0.5149 -0.7831
vn -0.2054 -0.5297 -0.8229
vn -0.2760 -0.7411 -0.6120
vn 0.0138 -0.0578 -0.9982
vn -0.0127 -0.0511 -0.9986
vn 0.0538 -0.0858 -0.9948
vn 0.0009 0.0161 -0.9998
vn 0.0208 0.0333 -0.9992
vn -0.4462 -0.8597 -0.2484
vn 0.0163 0.0273 -0.9995
vn 0.8564 -0.4498 -0.2536
vn 0.3326 -0.4831 -0.8099
vn 0.6922 -0.7199 -0.0506
vn 0.1975 -0.9803 -0.0071
vn 0.0063 -0.7950 -0.6065
vn 0.8000 0.4955 -0.3384
vn -0.0099 -0.0360 -0.9993
vn 0.0322 -0.0285 -0.9991
vn 0.2471 -0.2417 0.9384
vn 0.0931 0.2251 0.9698
vn -0.0028 -0.0716 0.9974
vn 0.1158 0.3318 0.9362
vn -0.0948 0.3403 0.9355
vn -0.1924 0.2706 0.9433
vn -0.4083 -0.0328 0.9122
vn -0.9962 -0.0441 -0.0745
vn -0.9429 0.3290 -0.0520
vn -0.4963 0.1881 -0.8475
vn -0.6138 -0.1049 -0.7824
vn 0.1718 -0.1076 -0.9792
vn -0.1493 -0.9888 -0.0035
vn -0.1705 -0.8714 -0.4600
vn -0.2257 0.0450 -0.9731
vn 0.0237 0.0735 -0.9970
vn 0.3474 -0.0520 0.9363
vn 0.0508 0.0738 0.9960
vn 0.0387 0.0483 0.9981
vn -0.3316 0.2033 0.9212
vn -0.8070 -0.5890 -0.0425
vn -0.5609 -0.5771 -0.5936
vn -0.7706 -0.0538 0.6350
vn 0.4496 -0.5150 0.7298
vn 0.8579 -0.3435 -0.3820
vn 0.9007 -0.4318 -0.0479
vn 0.4340 -0.1931 -0.8799
vn 0.3659 -0.1095 -0.9242
vn -0.5941 0.2701 0.7576
vn -0.5439 0.3231 0.7744
vn -0.8661 0.3831 -0.3211
vn -0.3730 0.2057 -0.9047
vn 0.0135 0.0551 -0.9984
vn 0.1462 -0.0244 -0.9890
vn 0.0937 -0.2329 -0.9680
vn -0.0594 -0.1423 -0.9880
vn 0.1362 0.0341 -0.9901
vn 0.0308 0.1059 -0.9939
vn -0.0874 -0.6084 -0.7888
vn -0.2126 -0.7649 -0.6081
vn -0.1367 0.0930 -0.9862
vn -0.0859 0.1328 -0.9874
vn -0.2346 -0.0992 -0.9670
vn -0.4597 -0.7753 -0.4331
vn -0.5474 -0.8366 -0.0182
vn 0.5877 0.5230 0.6173
vn 0.4428 0.5911 0.6742
vn 0.3160 0.4407 0.8401
vn 0.2141 0.5513 0.8064
vn 0.2261 0.5763 0.7853
vn 0.1435 0.3595 0.9220
vn 0.1431 0.3609 0.9215
vn 0.1617 0.4032 0.9007
vn 0.2322 0.6077 0.7595
vn 0.1415 0.4978 0.8557
vn 0.1571 0.6814 0.7148
vn 0.1013 0.7370 0.6682
vn 0.2259 0.7843 0.5778
vn 0.2918 0.7613 0.5789
vn 0.2903 0.7528 0.5907
vn 0.2777 0.7192 0.6369
vn 0.4732 0.7393 0.4790
vn 0.4284 0.4039 0.8083
vn 0.0106 0.1013 0.9948
vn -0.7467 -0.5672 -0.3475
vn -0.7624 -0.5813 -0.2842
vn -0.6520 -0.7120 -0.2605
vn -0.9571 0.2787 -0.0793
vn -0.7345 0.2188 0.6423
vn 0.8708 -0.4900 -0.0407
vn 0.6032 -0.2946 0.7412
vn 0.0166 -0.0487 -0.9987
vn 0.4340 -0.2678 -0.8601
vn -0.5271 0.0915 -0.8449
# 154 vertex normals

vt 0.2892 0.3850 0.0000
vt 0.1538 0.3451 0.0000
vt 0.1692 0.2849 0.0000
vt 0.7073 0.4408 0.0000
vt 0.7034 0.3417 0.0000
vt 0.7729 0.4090 0.0000
vt 0.6171 0.5190 0.0000
vt 0.5958 0.4196 0.0000
vt 0.6522 0.4759 0.0000
vt 0.3592 0.1955 0.0000
vt 0.3542 0.2920 0.0000
vt 0.2343 0.2211 0.0000
vt 0.5028 0.2409 0.0000
vt 0.4596 0.1614 0.0000
vt 0.3080 0.3275 0.0000
vt 0.1963 0.2473 0.0000
vt 0.5992 0.7466 0.0000
vt 0.6018 0.7493 0.0000
vt 0.5290 0.7493 0.0000
vt 0.5290 0.7466 0.0000
vt 0.5935 0.5669 0.0000
vt 0.5860 0.6270 0.0000
vt 0.5100 0.6222 0.0000
vt 0.5185 0.5466 0.0000
vt 0.2626 0.7466 0.0000
vt 0.3242 0.7466 0.0000
vt 0.3242 0.7493 0.0000
vt 0.2600 0.7493 0.0000
vt 0.2469 0.6199 0.0000
vt 0.3179 0.5904 0.0000
vt 0.3323 0.6739 0.0000
vt 0.2580 0.7064 0.0000
vt 0.6480 0.1467 0.0000
vt 0.7243 0.2077 0.0000
vt 0.6737 0.2409 0.0000
vt 0.5952 0.1852 0.0000
vt 0.2986 0.5046 0.0000
vt 0.2226 0.5400 0.0000
vt 0.1634 0.3993 0.0000
vt 0.9122 0.1100 0.0000
vt 0.8542 0.2136 0.0000
vt 0.7764 0.1739 0.0000
vt 0.8623 0.0547 0.0000
vt 0.7912 0.0235 0.0000
vt 0.7008 0.1049 0.0000
vt 0.9258 0.2362 0.0000
vt 0.8999 0.3006 0.0000
vt 0.8133 0.2572 0.0000
vt 0.5930 0.2891 0.0000
vt 0.7644 0.2964 0.0000
vt 0.4148 0.7466 0.0000
vt 0.4148 0.7493 0.0000
vt 0.4590 0.3648 0.0000
vt 0.4307 0.4044 0.0000
vt 0.4108 0.4806 0.0000
vt 0.4141 0.5603 0.0000
vt 0.5537 0.4658 0.0000
vt 0.6033 0.8281 0.0000
vt 0.6033 0.9154 0.0000
vt 0.5290 0.9154 0.0000
vt 0.5290 0.8281 0.0000
vt 0.3367 0.7466 0.0000
vt 0.3341 0.7493 0.0000
vt 0.5089 0.3263 0.0000
vt 0.5907 0.2678 0.0000
vt 0.7872 0.1596 0.0000
vt 0.4202 0.6357 0.0000
vt 0.4176 0.5525 0.0000
vt 0.7185 0.0177 0.0000
vt 0.4230 0.4551 0.0000
vt 0.9292 0.1705 0.0000
vt 0.6018 0.7558 0.0000
vt 0.6156 0.7558 0.0000
vt 0.6126 0.7493 0.0000
vt 0.6003 0.7493 0.0000
vt 0.8465 0.3617 0.0000
vt 0.6709 0.2244 0.0000
vt 0.4605 0.3817 0.0000
vt 0.5290 0.7558 0.0000
vt 0.4148 0.8281 0.0000
vt 0.4148 0.7558 0.0000
vt 0.4148 0.9154 0.0000
vt 0.3242 0.9154 0.0000
vt 0.3242 0.8281 0.0000
vt 0.3242 0.7558 0.0000
vt 0.2499 0.7558 0.0000
vt 0.2499 0.8281 0.0000
vt 0.2589 0.8281 0.0000
vt 0.2589 0.7558 0.0000
vt 0.5351 0.7437 0.0000
vt 0.6075 0.7466 0.0000
vt 0.5977 0.7466 0.0000
vt 0.3257 0.7437 0.0000
vt 0.4189 0.7437 0.0000
vt 0.5128 0.7437 0.0000
vt 0.4219 0.6350 0.0000
vt 0.3342 0.7437 0.0000
vt 0.2534 0.7493 0.0000
vt 0.2615 0.7493 0.0000
vt 0.2582 0.7558 0.0000
vt 0.6033 0.7558 0.0000
vt 0.6156 0.9154 0.0000
vt 0.6156 0.8281 0.0000
vt 0.6018 0.8281 0.0000
vt 0.6018 0.9154 0.0000
vt 0.2582 0.8281 0.0000
vt 0.2582 0.9154 0.0000
vt 0.2499 0.9154 0.0000
vt 0.2589 0.9154 0.0000
vt 0.5414 0.8281 0.0000
vt 0.5414 0.7558 0.0000
vt 0.5414 0.9154 0.0000
vt 0.5414 0.7493 0.0000
vt 0.5414 0.7466 0.0000
vt 0.3323 0.8281 0.0000
vt 0.3323 0.9154 0.0000
vt 0.3323 0.7558 0.0000
vt 0.2655 0.7466 0.0000
vt 0.2587 0.7466 0.0000
vt 0.2473 0.9918 0.0000
vt 0.2546 0.9822 0.0000
vt 0.2580 0.9918 0.0000
vt 0.3498 0.9680 0.0000
vt 0.4698 0.9601 0.0000
vt 0.4698 0.9918 0.0000
vt 0.3502 0.9918 0.0000
vt 0.6468 0.9918 0.0000
vt 0.6503 0.9615 0.0000
vt 0.7260 0.9918 0.0000
vt 0.7315 0.9791 0.0000
vt 0.7420 0.9918 0.0000
vt 0.7337 0.9664 0.0000
vt 0.6528 0.9296 0.0000
vt 0.4698 0.9229 0.0000
vt 0.3491 0.9413 0.0000
vt 0.2501 0.9692 0.0000
vt 0.6556 0.3783 0.0000
vt 0.5070 0.3309 0.0000
vt 0.5404 0.1169 0.0000
vt 0.5941 0.0679 0.0000
vt 0.6521 0.0305 0.0000
vt 0.2587 0.7437 0.0000
vt 0.2681 0.7437 0.0000
vt 0.5918 0.7437 0.0000
vt 0.5808 0.7437 0.0000
vt 0.7323 0.1924 0.0000
vt 0.5830 0.7437 0.0000
vt 0.2639 0.7437 0.0000
# 148 texture coords

o norvedem_sock
g norvedem_sock
usemtl sock4
s 1
f 1/1/1 2/2/2 3/3/3 
f 4/4/4 5/5/5 6/6/6 
f 7/7/7 8/8/8 9/9/9 
f 10/10/10 11/11/11 12/12/12 
f 13/13/13 11/11/11 10/10/10 
f 10/10/10 14/14/14 13/13/13 
f 15/15/15 3/3/3 16/16/16 
f 17/17/17 18/18/18 19/19/19 
f 19/19/19 20/20/20 17/17/17 
f 21/21/21 22/22/22 23/23/23 
f 23/23/23 24/24/24 21/21/21 
f 25/25/25 26/26/26 27/27/27 
f 27/27/27 28/28/28 25/25/25 
f 29/29/29 30/30/30 31/31/31 
f 31/31/31 32/32/32 29/29/29 
f 33/33/33 34/34/34 35/35/35 
f 35/35/35 36/36/36 33/33/33 
f 1/1/1 37/37/37 38/38/38 
f 38/38/38 39/39/39 1/1/1 
f 40/40/40 41/41/41 42/42/42 
f 43/43/43 42/42/42 44/44/44 
f 44/44/44 42/42/42 45/45/45 
f 41/41/41 46/46/46 47/47/47 
f 47/47/47 48/48/48 41/41/41 
f 36/36/36 35/35/35 49/49/49 
f 49/49/49 13/13/13 36/36/36 
f 5/5/5 49/49/49 35/35/35 
f 35/35/35 50/50/50 5/5/5 
f 26/26/26 51/51/51 52/52/52 
f 52/52/52 27/27/27 26/26/26 
f 20/20/20 19/19/19 52/52/52 
f 52/52/52 51/51/51 20/20/20 
f 11/11/11 53/53/53 15/15/15 
f 1/1/1 54/54/54 55/55/55 
f 55/55/55 37/37/37 1/1/1 
f 37/37/37 55/55/55 56/56/56 
f 56/56/56 30/30/30 37/37/37 
f 54/54/54 57/57/57 55/55/55 
f 24/24/24 56/56/56 55/55/55 
f 55/55/55 57/57/57 24/24/24 
f 58/58/58 59/59/59 60/60/60 
f 60/60/60 61/61/61 58/58/58 
f 62/62/62 63/63/63 64/52/64 
f 64/52/64 65/51/65 62/62/62 
f 66/64/66 67/65/67 14/14/14 
f 14/14/14 10/10/10 66/64/66 
f 68/66/68 43/43/43 44/44/44 
f 69/67/69 70/68/70 29/29/29 
f 29/29/29 32/32/32 69/67/69 
f 71/69/71 68/66/68 44/44/44 
f 2/2/2 72/70/72 3/3/3 
f 38/38/38 70/68/70 72/70/72 
f 72/70/72 39/39/39 38/38/38 
f 68/66/68 73/71/73 40/40/40 
f 74/72/74 75/73/75 76/74/76 
f 76/74/76 77/75/77 74/72/74 
f 72/70/72 70/68/70 21/21/21 
f 21/21/21 7/7/7 72/70/72 
f 6/6/6 78/76/78 79/77/79 
f 79/77/79 67/65/67 6/6/6 
f 66/64/66 80/78/80 9/9/9 
f 9/9/9 4/4/4 66/64/66 
f 81/79/81 61/61/61 82/80/82 
f 82/80/82 83/81/83 81/79/81 
f 84/82/84 85/83/85 86/84/86 
f 86/84/86 82/80/82 84/82/84 
f 84/82/84 82/80/82 61/61/61 
f 61/61/61 60/60/60 84/82/84 
f 87/85/87 83/81/83 82/80/82 
f 82/80/82 86/84/86 87/85/87 
f 88/86/88 89/87/89 90/88/90 
f 90/88/90 91/89/91 88/86/88 
f 22/22/22 69/67/69 92/90/92 
f 77/75/77 76/74/76 93/91/93 
f 93/91/93 94/92/94 77/75/77 
f 62/93/95 65/94/96 69/67/69 
f 20/95/97 51/94/98 95/96/99 
f 95/96/99 23/23/23 20/95/97 
f 31/31/31 95/96/99 51/94/98 
f 51/94/98 26/97/100 31/31/31 
f 96/98/101 88/86/88 91/89/91 
f 91/89/91 97/99/102 96/98/101 
f 28/28/28 27/27/27 87/85/87 
f 87/85/87 98/100/103 28/28/28 
f 27/27/27 52/52/52 83/81/83 
f 83/81/83 87/85/87 27/27/27 
f 76/74/76 75/73/75 99/101/104 
f 99/101/104 18/18/18 76/74/76 
f 19/19/19 81/79/81 83/81/83 
f 83/81/83 52/52/52 19/19/19 
f 100/102/105 101/103/106 102/104/107 
f 102/104/107 103/105/108 100/102/105 
f 104/106/109 86/84/86 85/83/85 
f 85/83/85 105/107/110 104/106/109 
f 99/101/104 58/58/58 61/61/61 
f 61/61/61 81/79/81 99/101/104 
f 98/100/103 87/85/87 86/84/86 
f 86/84/86 104/106/109 98/100/103 
f 90/88/90 89/87/89 106/108/111 
f 106/108/111 107/109/112 90/88/90 
f 102/104/107 101/103/106 75/73/75 
f 75/73/75 74/72/74 102/104/107 
f 108/80/113 109/110/114 110/111/115 
f 110/111/115 111/81/116 108/80/113 
f 112/112/117 109/110/114 108/80/113 
f 108/80/113 113/82/118 112/112/117 
f 64/52/64 114/113/119 92/114/120 
f 92/114/120 65/51/65 64/52/64 
f 111/81/116 110/111/115 114/113/119 
f 114/113/119 64/52/64 111/81/116 
f 108/80/113 115/115/121 116/116/122 
f 116/116/122 113/82/118 108/80/113 
f 63/63/63 117/117/123 111/81/116 
f 111/81/116 64/52/64 63/63/63 
f 117/117/123 115/115/121 108/80/113 
f 108/80/113 111/81/116 117/117/123 
f 118/118/124 97/99/102 63/63/63 
f 63/63/63 62/62/62 118/118/124 
f 75/73/75 101/103/106 58/58/58 
f 58/58/58 99/101/104 75/73/75 
f 18/18/18 99/101/104 81/79/81 
f 81/79/81 19/19/19 18/18/18 
f 101/103/106 100/102/105 59/59/59 
f 59/59/59 58/58/58 101/103/106 
f 93/91/93 76/74/76 18/18/18 
f 18/18/18 17/17/17 93/91/93 
f 109/110/114 102/104/107 74/72/74 
f 74/72/74 110/111/115 109/110/114 
f 103/105/108 102/104/107 109/110/114 
f 109/110/114 112/112/117 103/105/108 
f 114/113/119 77/75/77 94/92/94 
f 94/92/94 92/114/120 114/113/119 
f 110/111/115 74/72/74 77/75/77 
f 77/75/77 114/113/119 110/111/115 
f 88/86/88 98/100/103 104/106/109 
f 104/106/109 89/87/89 88/86/88 
f 89/87/89 104/106/109 105/107/110 
f 105/107/110 106/108/111 89/87/89 
f 96/98/101 28/28/28 98/100/103 
f 98/100/103 88/86/88 96/98/101 
f 119/119/125 25/25/25 28/28/28 
f 28/28/28 96/98/101 119/119/125 
f 119/119/125 96/98/101 97/99/102 
f 97/99/102 118/118/124 119/119/125 
f 115/115/121 90/88/90 107/109/112 
f 107/109/112 116/116/122 115/115/121 
f 97/99/102 91/89/91 117/117/123 
f 117/117/123 63/63/63 97/99/102 
f 91/89/91 90/88/90 115/115/121 
f 115/115/121 117/117/123 91/89/91 
f 106/120/126 120/121/127 107/122/128 
f 121/123/129 107/122/128 120/121/127 
f 121/123/129 122/124/130 113/125/131 
f 113/125/131 116/126/132 121/123/129 
f 112/127/133 113/125/131 122/124/130 
f 122/124/130 123/128/134 112/127/133 
f 103/129/135 112/127/133 123/128/134 
f 123/128/134 124/130/136 103/129/135 
f 124/130/136 100/131/137 103/129/135 
f 59/132/138 124/130/136 123/128/134 
f 123/128/134 60/133/139 59/132/138 
f 60/133/139 123/128/134 122/124/130 
f 122/124/130 84/134/140 60/133/139 
f 85/135/141 84/134/140 122/124/130 
f 122/124/130 121/123/129 85/135/141 
f 85/135/141 120/121/127 105/136/142 
f 106/120/126 105/136/142 120/121/127 
f 124/130/136 59/132/138 100/131/137 
f 85/135/141 121/123/129 120/121/127 
f 121/123/129 116/126/132 107/122/128 
f 4/4/4 6/6/6 67/65/67 
f 67/65/67 66/64/66 4/4/4 
f 80/78/80 66/64/66 10/10/10 
f 10/10/10 12/12/12 80/78/80 
f 125/137/143 126/138/144 49/49/49 
f 49/49/49 5/5/5 125/137/143 
f 13/13/13 49/49/49 126/138/144 
f 126/138/144 11/11/11 13/13/13 
f 127/139/145 36/36/36 13/13/13 
f 13/13/13 14/14/14 127/139/145 
f 6/6/6 50/50/50 78/76/78 
f 8/8/8 53/53/53 126/138/144 
f 126/138/144 125/137/143 8/8/8 
f 45/45/45 71/69/71 44/44/44 
f 73/71/73 41/41/41 40/40/40 
f 36/36/36 127/139/145 128/140/146 
f 128/140/146 33/33/33 36/36/36 
f 34/34/34 48/48/48 50/50/50 
f 50/50/50 35/35/35 34/34/34 
f 42/42/42 41/41/41 48/48/48 
f 48/48/48 34/34/34 42/42/42 
f 33/33/33 128/140/146 129/141/147 
f 129/141/147 45/45/45 33/33/33 
f 48/48/48 47/47/47 78/76/78 
f 78/76/78 50/50/50 48/48/48 
f 45/45/45 42/42/42 34/34/34 
f 34/34/34 33/33/33 45/45/45 
f 45/45/45 129/141/147 71/69/71 
f 73/71/73 46/46/46 41/41/41 
f 43/43/43 40/40/40 42/42/42 
f 57/57/57 54/54/54 53/53/53 
f 53/53/53 8/8/8 57/57/57 
f 15/15/15 53/53/53 54/54/54 
f 54/54/54 1/1/1 15/15/15 
f 11/11/11 16/16/16 12/12/12 
f 9/9/9 125/137/143 4/4/4 
f 1/1/1 39/39/39 2/2/2 
f 15/15/15 1/1/1 3/3/3 
f 23/23/23 95/96/99 56/56/56 
f 56/56/56 24/24/24 23/23/23 
f 30/30/30 56/56/56 95/96/99 
f 95/96/99 31/31/31 30/30/30 
f 38/38/38 37/37/37 30/30/30 
f 30/30/30 29/29/29 38/38/38 
f 21/21/21 57/57/57 7/7/7 
f 119/142/148 32/32/32 25/143/149 
f 25/143/149 31/31/31 26/97/100 
f 25/143/149 32/32/32 31/31/31 
f 22/22/22 93/144/150 17/145/151 
f 17/145/151 23/23/23 22/22/22 
f 17/145/151 20/95/97 23/23/23 
f 6/6/6 5/5/5 50/50/50 
f 4/4/4 125/137/143 5/5/5 
f 9/9/9 8/8/8 125/137/143 
f 68/66/68 46/46/46 73/71/73 
f 68/66/68 40/40/40 43/43/43 
f 71/69/71 129/141/147 68/66/68 
f 80/78/80 72/70/72 7/7/7 
f 7/7/7 9/9/9 80/78/80 
f 79/77/79 130/146/152 128/140/146 
f 128/140/146 127/139/145 79/77/79 
f 67/65/67 79/77/79 127/139/145 
f 127/139/145 14/14/14 67/65/67 
f 68/66/68 130/146/152 47/47/47 
f 47/47/47 46/46/46 68/66/68 
f 130/146/152 68/66/68 129/141/147 
f 129/141/147 128/140/146 130/146/152 
f 78/76/78 47/47/47 130/146/152 
f 130/146/152 79/77/79 78/76/78 
f 80/78/80 12/12/12 16/16/16 
f 16/16/16 3/3/3 72/70/72 
f 72/70/72 80/78/80 16/16/16 
f 2/2/2 39/39/39 72/70/72 
f 29/29/29 70/68/70 38/38/38 
f 70/68/70 69/67/69 22/22/22 
f 22/22/22 21/21/21 70/68/70 
f 69/67/69 65/94/96 92/90/92 
f 92/90/92 94/147/153 22/22/22 
f 94/147/153 93/144/150 22/22/22 
f 69/67/69 32/32/32 62/93/95 
f 32/32/32 119/142/148 118/148/154 
f 62/93/95 32/32/32 118/148/154 
f 11/11/11 15/15/15 16/16/16 
f 11/11/11 126/138/144 53/53/53 
f 7/7/7 57/57/57 8/8/8 
f 21/21/21 24/24/24 57/57/57 
# 256 faces

