# Blender v2.80 (sub 75) OBJ File: ''
# www.blender.org
mtllib norvedem-garland.mtl
o norvedem-garland
v 0.117420 -0.065666 -0.253559
v 0.062731 -0.206096 0.071734
v 0.331219 -0.074904 0.173509
v 0.385908 0.065526 -0.151784
v -0.393920 -0.206625 -0.005269
v -0.339231 -0.066196 -0.330561
v 0.824194 0.038341 -0.247319
v 0.768309 -0.154496 0.070854
v 1.081238 -0.095004 0.161875
v 1.137122 0.097833 -0.156299
v 0.294397 -0.048550 0.051826
v 0.350282 0.144287 -0.266347
v -1.024416 -0.069279 -0.204230
v -1.053015 -0.198068 0.099971
v -0.780549 -0.113121 0.161550
v -0.751950 0.015668 -0.142650
v -1.477165 -0.140583 0.084431
v -1.448566 -0.011795 -0.219769
v -0.534979 -0.080423 -0.120080
v -0.471750 -0.080423 0.205801
v -0.195871 0.000000 0.152273
v -0.259100 0.000000 -0.173608
v -0.885234 0.000000 0.286027
v -0.948463 0.000000 -0.039854
v 1.334397 -0.156621 -0.047612
v 1.400955 0.053221 0.289022
v 1.733704 0.115106 0.184656
v 1.667145 -0.094736 -0.151978
v 0.894956 0.167660 0.317730
v 0.828397 -0.042182 -0.018904
v -1.028343 -0.171484 -0.110091
v -0.938657 0.042383 0.343185
v -0.692132 0.131642 0.252293
v -0.781818 -0.082224 -0.200984
v -1.561147 -0.196348 0.007061
v -1.471461 0.017519 0.460338
v -1.195021 -0.008847 0.418081
v -1.284707 -0.222714 -0.035196
v 0.898257 -0.210933 -0.120354
v 1.064189 0.039230 0.290897
v 1.288639 0.125082 0.148113
v 1.122707 -0.125081 -0.263138
v 0.383057 -0.186590 0.072712
v 0.548989 0.063573 0.483963
v 0.816502 0.008935 0.409263
v 0.650570 -0.241228 -0.001988
v 1.326502 -0.017505 -0.341181
v 1.295376 -0.151502 0.149041
v 1.558985 -0.066998 0.188877
v 1.590111 0.066999 -0.301345
v 0.778353 0.034481 -0.361775
v 0.747227 -0.099516 0.128447
v 1.020447 -0.176380 0.124785
v 1.051573 -0.042383 -0.365437
v -1.186150 0.010494 -0.289948
v -1.236143 -0.092743 0.206121
v -0.964082 -0.051618 0.242098
v -0.914088 0.051619 -0.253971
v -1.724309 0.095796 -0.326431
v -1.774302 -0.007441 0.169639
v -1.506729 -0.092399 0.178924
v -1.456735 0.010838 -0.317146
v -0.844831 0.072539 -0.277794
v -0.857332 -0.250744 0.115366
v -0.607396 -0.161641 0.196580
v -0.594895 0.161642 -0.196580
v -1.385673 0.023498 -0.335315
v -1.398173 -0.299785 0.057844
v -1.117408 -0.307879 0.060116
v -1.104907 0.015404 -0.333043
v -0.306553 0.072169 -0.301611
v -0.383384 -0.228596 0.101973
v -0.117103 -0.199423 0.174406
v -0.040272 0.101342 -0.229178
v -0.845096 0.151692 -0.344870
v -0.921926 -0.149073 0.058714
v -0.650196 -0.212254 0.063359
v -0.573366 0.088511 -0.340225
v -1.324601 -0.198021 -0.128980
v -1.240298 0.120270 0.259384
v -0.973520 0.139722 0.185532
v -1.057823 -0.178569 -0.202832
v -1.858730 -0.086877 -0.104125
v -1.774428 0.231414 0.284238
v -1.504657 0.162438 0.282209
v -1.588959 -0.155853 -0.106155
v 0.469983 -0.081232 -0.251261
v 0.509271 -0.164385 0.249522
v 0.758109 -0.041576 0.250392
v 0.718821 0.041577 -0.250392
v -0.068502 -0.116761 -0.214915
v -0.029214 -0.199914 0.285869
v 0.249377 -0.233487 0.258438
v 0.210089 -0.150334 -0.242346
v -0.626736 -0.264075 -0.051354
v -0.490149 0.011116 0.354671
v -0.289430 0.139120 0.200392
v -0.426017 -0.136071 -0.205633
v -1.159696 -0.224707 0.101251
v -1.023109 0.050484 0.507276
v -0.746357 -0.016415 0.459519
v -0.882944 -0.291606 0.053494
v 0.293612 -0.244611 -0.125346
v 0.292399 0.089852 0.258548
v 0.550429 0.167232 0.191947
v 0.551642 -0.167232 -0.191947
v -0.251345 -0.272056 -0.103157
v -0.252558 0.062407 0.280737
v 0.027216 0.043983 0.297673
v 0.028430 -0.290481 -0.086221
v -0.145647 -0.147208 -0.165443
v -0.035948 -0.039069 0.319855
v 0.213787 0.054070 0.242649
v 0.104088 -0.054069 -0.242649
v -0.676927 -0.167741 -0.040775
v -0.567229 -0.059602 0.444523
v -0.293556 -0.091185 0.389699
v -0.403255 -0.199325 -0.095599
v 0.597288 -0.259624 -0.069895
v 0.639654 0.099943 0.288097
v 0.885716 0.174726 0.183866
v 0.843350 -0.184841 -0.174127
v 0.060186 -0.289887 0.024062
v 0.102551 0.069680 0.382055
v 0.382460 0.054688 0.363988
v 0.340094 -0.304879 0.005996
v 1.505043 -0.072100 -0.295655
v 1.434045 -0.225926 0.184490
v 1.661696 -0.076913 0.265892
v 1.732693 0.076913 -0.214253
v 0.952820 -0.019039 -0.360311
v 0.881823 -0.172865 0.119834
v 1.160000 -0.235477 0.140908
v 1.230998 -0.081652 -0.339237
v -0.182437 -0.140895 0.146275
v -0.127216 -0.076839 0.292587
v -0.039394 -0.088615 0.264596
v -0.094615 -0.152671 0.118285
v 0.068868 -0.048708 0.206265
v 0.013647 -0.112764 0.059953
v -0.249660 0.036477 -0.175074
v -0.320282 -0.109825 -0.128514
v -0.238936 -0.137945 -0.093488
v -0.168314 0.008356 -0.140048
v -0.152844 -0.149009 0.002332
v -0.082221 -0.002707 -0.044228
v -1.372353 -0.010655 0.126283
v -1.285134 0.082912 0.236726
v -1.205729 0.047132 0.204331
v -1.292948 -0.046434 0.093888
v -1.104121 0.046783 0.124384
v -1.191339 -0.046783 0.013941
v -1.107932 -0.137177 0.222099
v -1.032707 -0.043808 0.341192
v -0.956165 -0.038600 0.288761
v -1.031390 -0.131969 0.169668
v -0.882444 0.017243 0.198414
v -0.957669 -0.076126 0.079321
v -0.769697 -0.169473 -0.078859
v -0.822525 -0.147006 0.080088
v -0.734593 -0.150965 0.109873
v -0.681765 -0.173432 -0.049074
v -0.621018 -0.097031 0.139997
v -0.568190 -0.119498 -0.018949
v 0.278577 -0.169034 0.130586
v 0.271258 -0.025542 0.219558
v 0.356403 -0.002890 0.190030
v 0.363723 -0.146382 0.101059
v 0.437970 0.052944 0.106692
v 0.445289 -0.090548 0.017720
v 0.630690 -0.039284 0.216446
v 0.731237 0.066511 0.301635
v 0.801566 0.045579 0.244623
v 0.701019 -0.060217 0.159434
v 0.872405 0.064063 0.138057
v 0.771858 -0.041732 0.052869
v 0.960215 0.006211 -0.210242
v 0.840056 -0.021593 -0.094708
v 0.896910 -0.079568 -0.049529
v 1.017070 -0.051765 -0.165063
v 0.987758 -0.105824 0.038637
v 1.107918 -0.078021 -0.076897
v 1.276679 0.086040 -0.166440
v 1.210336 -0.035271 -0.069271
v 1.293032 -0.077483 -0.065510
v 1.359375 0.043827 -0.162679
v 1.409017 -0.098305 -0.012314
v 1.475361 0.023006 -0.109484
v 1.029071 -0.119334 -0.195478
v 1.086502 -0.090127 -0.074034
v 1.133640 -0.102147 -0.093435
v 1.076209 -0.131354 -0.214879
v -1.540524 0.010779 0.151172
v -1.417457 0.026328 0.091902
v -1.434129 -0.000632 0.050212
v -1.557196 -0.016182 0.109482
v -1.188127 -0.133339 0.187986
v -1.069599 -0.070875 0.157173
v -1.075718 -0.084081 0.106863
v -1.194246 -0.146546 0.137676
v -1.081987 -0.113753 -0.213399
v -1.030695 -0.111140 -0.085874
v -0.982263 -0.107314 -0.105433
v -1.033554 -0.109927 -0.232957
v -0.849873 -0.155484 0.084214
v -0.796120 -0.059015 0.002334
v -0.839567 -0.059622 -0.026904
v -0.893320 -0.156092 0.054975
v -1.458601 -0.114570 -0.053133
v -1.326326 -0.103912 -0.017219
v -1.314131 -0.090081 -0.066238
v -1.446406 -0.100739 -0.102152
v -0.450401 -0.154533 0.242852
v -0.376403 -0.141932 0.127676
v -0.420522 -0.137317 0.099836
v -0.494520 -0.149917 0.215012
v -0.556071 -0.066365 -0.156173
v -0.485911 -0.098909 -0.042513
v -0.440917 -0.093786 -0.068821
v -0.511076 -0.061242 -0.182481
v -0.346573 -0.224710 -0.054056
v -0.226241 -0.163111 -0.029040
v -0.215228 -0.163832 -0.080236
v -0.335560 -0.225432 -0.105252
v -0.186803 -0.135860 0.181670
v -0.066971 -0.070564 0.165036
v -0.074448 -0.070045 0.113203
v -0.194281 -0.135341 0.129836
v -0.053230 -0.199911 -0.034556
v 0.047189 -0.168762 0.054021
v 0.082846 -0.177506 0.016672
v -0.017572 -0.208656 -0.071905
v 0.173953 -0.012286 0.242517
v 0.270990 -0.009682 0.145165
v 0.240553 -0.038807 0.114049
v 0.143517 -0.041410 0.211400
v 0.387679 -0.073880 0.311867
v 0.439296 -0.074664 0.184450
v 0.393279 -0.091445 0.165912
v 0.341662 -0.090661 0.293329
v 0.523724 -0.018860 -0.182074
v 0.611429 -0.028916 -0.076685
v 0.647825 -0.003593 -0.104557
v 0.560121 0.006464 -0.209946
v 0.675458 -0.104575 0.273189
v 0.756787 -0.127778 0.164804
v 0.714720 -0.138667 0.135569
v 0.633391 -0.115464 0.243954
v 1.134075 -0.091423 0.120388
v 1.210145 -0.055449 0.011671
v 1.171300 -0.069970 -0.020314
v 1.095230 -0.105944 0.088402
v 1.568347 -0.052977 0.079068
v 1.660132 0.047898 0.096381
v 1.685502 0.032202 0.053336
v 1.593717 -0.068673 0.036023
vt 0.442013 0.995612
vt 0.741445 0.995612
vt 0.741445 0.655561
vt 0.442013 0.655561
vt 0.002754 0.655561
vt 0.002754 0.995612
vt 0.442013 0.995612
vt 0.741445 0.995612
vt 0.741445 0.655561
vt 0.442013 0.655561
vt 0.002754 0.655561
vt 0.002754 0.995612
vt 0.442013 0.995612
vt 0.741445 0.995612
vt 0.741445 0.655561
vt 0.442013 0.655561
vt 0.002754 0.655561
vt 0.002754 0.995612
vt 0.442013 0.995612
vt 0.741445 0.995612
vt 0.741445 0.655561
vt 0.442013 0.655561
vt 0.002754 0.655561
vt 0.002754 0.995612
vt 0.442013 0.995612
vt 0.741445 0.995612
vt 0.741445 0.655561
vt 0.442013 0.655561
vt 0.002754 0.655561
vt 0.002754 0.995612
vt 0.444853 0.214329
vt 0.444853 0.005066
vt 0.052486 0.005066
vt 0.052486 0.214329
vt 0.444853 0.632854
vt 0.444853 0.423591
vt 0.052486 0.423591
vt 0.052486 0.632854
vt 0.444853 0.214329
vt 0.444853 0.005066
vt 0.052486 0.005066
vt 0.052486 0.214329
vt 0.444853 0.632854
vt 0.444853 0.423591
vt 0.052486 0.423591
vt 0.052486 0.632854
vt 0.444853 0.214329
vt 0.444853 0.005066
vt 0.052486 0.005066
vt 0.052486 0.214329
vt 0.444853 0.632854
vt 0.444853 0.423591
vt 0.052486 0.423591
vt 0.052486 0.632854
vt 0.444853 0.214329
vt 0.444853 0.005066
vt 0.052486 0.005066
vt 0.052486 0.214329
vt 0.444853 0.632854
vt 0.444853 0.423591
vt 0.052486 0.423591
vt 0.052486 0.632854
vt 0.444853 0.214329
vt 0.444853 0.005066
vt 0.052486 0.005066
vt 0.052486 0.214329
vt 0.444853 0.632854
vt 0.444853 0.423591
vt 0.052486 0.423591
vt 0.052486 0.632854
vt 0.444853 0.214329
vt 0.444853 0.005066
vt 0.052486 0.005066
vt 0.052486 0.214329
vt 0.444853 0.632854
vt 0.444853 0.423591
vt 0.052486 0.423591
vt 0.052486 0.632854
vt 0.444853 0.214329
vt 0.444853 0.005066
vt 0.052486 0.005066
vt 0.052486 0.214329
vt 0.444853 0.632854
vt 0.444853 0.423591
vt 0.052486 0.423591
vt 0.052486 0.632854
vt 0.444853 0.214329
vt 0.444853 0.005066
vt 0.052486 0.005066
vt 0.052486 0.214329
vt 0.444853 0.632854
vt 0.444853 0.423591
vt 0.052486 0.423591
vt 0.052486 0.632854
vt 0.444853 0.214329
vt 0.444853 0.005066
vt 0.052486 0.005066
vt 0.052486 0.214329
vt 0.444853 0.632854
vt 0.444853 0.423591
vt 0.052486 0.423591
vt 0.052486 0.632854
vt 0.444853 0.214329
vt 0.444853 0.005066
vt 0.052486 0.005066
vt 0.052486 0.214329
vt 0.444853 0.632854
vt 0.444853 0.423591
vt 0.052486 0.423591
vt 0.052486 0.632854
vt 0.444853 0.214329
vt 0.444853 0.005066
vt 0.052486 0.005066
vt 0.052486 0.214329
vt 0.444853 0.632854
vt 0.444853 0.423591
vt 0.052486 0.423591
vt 0.052486 0.632854
vt 0.444853 0.214329
vt 0.444853 0.005066
vt 0.052486 0.005066
vt 0.052486 0.214329
vt 0.444853 0.632854
vt 0.444853 0.423591
vt 0.052486 0.423591
vt 0.052486 0.632854
vt 0.444853 0.214329
vt 0.444853 0.005066
vt 0.052486 0.005066
vt 0.052486 0.214329
vt 0.444853 0.632854
vt 0.444853 0.423591
vt 0.052486 0.423591
vt 0.052486 0.632854
vt 0.976571 0.650665
vt 0.976571 0.380693
vt 0.485586 0.380693
vt 0.485586 0.650665
vt 0.976571 0.005066
vt 0.485586 0.005066
vt 0.976571 0.650665
vt 0.976571 0.380693
vt 0.485586 0.380693
vt 0.485586 0.650665
vt 0.976571 0.005066
vt 0.485586 0.005066
vt 0.976571 0.650665
vt 0.976571 0.380693
vt 0.485586 0.380693
vt 0.485586 0.650665
vt 0.976571 0.005066
vt 0.485586 0.005066
vt 0.976571 0.650665
vt 0.976571 0.380693
vt 0.485586 0.380693
vt 0.485586 0.650665
vt 0.976571 0.005066
vt 0.485586 0.005066
vt 0.976571 0.650665
vt 0.976571 0.380693
vt 0.485586 0.380693
vt 0.485586 0.650665
vt 0.976571 0.005066
vt 0.485586 0.005066
vt 0.976571 0.650665
vt 0.976571 0.380693
vt 0.485586 0.380693
vt 0.485586 0.650665
vt 0.976571 0.005066
vt 0.485586 0.005066
vt 0.976571 0.650665
vt 0.976571 0.380693
vt 0.485586 0.380693
vt 0.485586 0.650665
vt 0.976571 0.005066
vt 0.485586 0.005066
vt 0.976571 0.650665
vt 0.976571 0.380693
vt 0.485586 0.380693
vt 0.485586 0.650665
vt 0.976571 0.005066
vt 0.485586 0.005066
vt 0.976571 0.650665
vt 0.976571 0.380693
vt 0.485586 0.380693
vt 0.485586 0.650665
vt 0.976571 0.005066
vt 0.485586 0.005066
vt 0.821994 0.943177
vt 0.926625 0.943177
vt 0.926625 0.668520
vt 0.821994 0.668520
vt 0.821994 0.943177
vt 0.926625 0.943177
vt 0.926625 0.668520
vt 0.821994 0.668520
vt 0.821994 0.943177
vt 0.926625 0.943177
vt 0.926625 0.668520
vt 0.821994 0.668520
vt 0.821994 0.943177
vt 0.926625 0.943177
vt 0.926625 0.668520
vt 0.821994 0.668520
vt 0.821994 0.943177
vt 0.926625 0.943177
vt 0.926625 0.668520
vt 0.821994 0.668520
vt 0.821994 0.943177
vt 0.926625 0.943177
vt 0.926625 0.668520
vt 0.821994 0.668520
vt 0.821994 0.943177
vt 0.926625 0.943177
vt 0.926625 0.668520
vt 0.821994 0.668520
vt 0.821994 0.943177
vt 0.926625 0.943177
vt 0.926625 0.668520
vt 0.821994 0.668520
vt 0.821994 0.943177
vt 0.926625 0.943177
vt 0.926625 0.668520
vt 0.821994 0.668520
vt 0.821994 0.943177
vt 0.926625 0.943177
vt 0.926625 0.668520
vt 0.821994 0.668520
vt 0.821994 0.943177
vt 0.926625 0.943177
vt 0.926625 0.668520
vt 0.821994 0.668520
vt 0.821994 0.943177
vt 0.926625 0.943177
vt 0.926625 0.668520
vt 0.821994 0.668520
vt 0.821994 0.943177
vt 0.926625 0.943177
vt 0.926625 0.668520
vt 0.821994 0.668520
vt 0.821994 0.943177
vt 0.926625 0.943177
vt 0.926625 0.668520
vt 0.821994 0.668520
vt 0.821994 0.943177
vt 0.926625 0.943177
vt 0.926625 0.668520
vt 0.821994 0.668520
vt 0.821994 0.943177
vt 0.926625 0.943177
vt 0.926625 0.668520
vt 0.821994 0.668520
vt 0.821994 0.943177
vt 0.926625 0.943177
vt 0.926625 0.668520
vt 0.821994 0.668520
vn 0.2927 -0.8948 -0.3371
vn 0.5034 -0.8209 -0.2698
vn 0.0662 -0.9201 -0.3861
vn 0.0660 -0.8584 -0.5087
vn 0.2927 -0.8397 -0.4575
vn -0.1643 -0.8305 -0.5322
vn 0.1233 -0.9180 -0.3770
vn 0.3488 -0.8743 -0.3374
vn -0.1090 -0.9117 -0.3962
vn 0.0442 -0.9990 -0.0086
vn 0.2701 -0.9614 -0.0524
vn -0.1841 -0.9823 0.0357
vn 0.0742 -0.8528 0.5169
vn 0.3000 -0.8350 0.4612
vn -0.1555 -0.8242 0.5445
vn 0.3547 -0.8707 0.3406
vn 0.4239 -0.8486 0.3165
vn -0.0204 -0.9026 0.4299
vn 0.1331 -0.9062 0.4012
vn 0.4019 -0.8453 0.3521
vn 0.4990 -0.8150 0.2944
vn -0.0262 -0.8493 0.5272
vn 0.1386 -0.8699 0.4733
vn 0.2203 -0.9444 -0.2441
vn 0.3284 -0.9162 -0.2296
vn -0.2641 -0.9260 -0.2699
vn -0.0787 -0.9603 -0.2675
vn 0.0951 -0.9765 -0.1936
vn 0.1707 -0.9679 -0.1842
vn -0.2880 -0.9313 -0.2228
vn -0.1361 -0.9671 -0.2150
vn 0.3636 -0.7252 -0.5847
vn 0.4338 -0.7027 -0.5640
vn -0.0171 -0.7720 -0.6354
vn 0.1387 -0.7671 -0.6263
vn 0.1377 -0.8066 -0.5749
vn 0.2375 -0.8000 -0.5510
vn -0.1697 -0.7745 -0.6095
vn -0.0669 -0.7939 -0.6044
vn 0.0774 -0.7793 0.6219
vn 0.2198 -0.7774 0.5894
vn -0.1844 -0.7402 0.6466
vn -0.1257 -0.7537 0.6450
vn 0.3432 -0.9218 -0.1800
vn 0.4358 -0.8817 -0.1806
vn -0.1330 -0.9794 -0.1522
vn 0.0582 -0.9841 -0.1680
vn 0.4802 -0.7926 0.3757
vn 0.6538 -0.7101 0.2614
vn -0.0954 -0.8088 0.5803
vn 0.0955 -0.8386 0.5363
vn 0.2957 -0.7198 0.6281
vn 0.3679 -0.7005 0.6115
vn -0.0891 -0.7511 0.6541
vn 0.0671 -0.7522 0.6555
vn 0.3090 -0.9407 0.1398
vn 0.3790 -0.9177 0.1188
vn -0.0657 -0.9707 0.2312
vn 0.0868 -0.9764 0.1979
vn 0.3855 -0.6734 0.6308
vn 0.4547 -0.6547 0.6038
vn 0.0079 -0.7060 0.7082
vn 0.1630 -0.7057 0.6895
vn 0.3434 -0.9080 -0.2401
vn 0.5814 -0.7959 -0.1690
vn -0.1842 -0.9278 -0.3245
vn -0.0527 -0.9487 -0.3117
vn 0.0045 -0.9167 0.3996
vn 0.2278 -0.9206 0.3171
vn 0.4382 -0.8724 0.2165
vn 0.2429 -0.3987 -0.8843
vn 0.4430 -0.4590 -0.7701
vn 0.6180 -0.4932 -0.6122
vn -0.0586 -0.7384 0.6718
vn 0.1451 -0.8085 0.5703
vn 0.3406 -0.8327 0.4365
vn 0.3512 -0.8316 0.4301
vn 0.5360 -0.7948 0.2845
vn 0.6905 -0.7129 0.1228
vn -0.0827 -0.9902 0.1125
vn 0.1434 -0.9722 0.1851
vn 0.3614 -0.8991 0.2472
vn 0.3981 -0.4686 0.7886
vn 0.6035 -0.3977 0.6911
vn 0.7747 -0.3042 0.5544
vn 0.2705 -0.7466 0.6078
vn 0.4418 -0.7787 0.4455
vn 0.5881 -0.7666 0.2579
vn -0.3465 -0.7640 -0.5443
vn -0.1920 -0.8898 -0.4139
vn -0.0266 -0.9652 -0.2600
vn -0.2321 -0.5276 -0.8172
vn -0.0151 -0.6200 -0.7844
vn 0.2027 -0.6773 -0.7072
vn -0.1241 -0.9498 0.2871
vn 0.3120 -0.8498 0.4248
vn 0.4930 -0.8544 0.1643
vn 0.0749 -0.9971 -0.0097
vn 0.3987 -0.7124 -0.5776
vn 0.1416 -0.9614 -0.2360
vn -0.0251 -0.9919 -0.1246
vn -0.0380 -0.9666 -0.2533
vn 0.4355 -0.8939 0.1063
vn 0.4689 -0.8800 -0.0764
vn 0.0540 -0.9596 0.2762
vn 0.4050 -0.8309 0.3815
vn 0.2950 -0.9473 0.1253
vn 0.3317 -0.8723 -0.3593
vn 0.0697 -0.9635 0.2586
vn 0.3791 -0.9245 -0.0407
vn 0.5653 -0.6097 0.5555
usemtl garland
s 1
f 1/1/1 4/2/2 3/3/2 2/4/1
f 5/5/3 6/6/3 1/1/1 2/4/1
f 7/7/4 10/8/5 9/9/5 8/10/4
f 11/11/6 12/12/6 7/7/4 8/10/4
f 13/13/7 16/14/8 15/15/8 14/16/7
f 17/17/9 18/18/9 13/13/7 14/16/7
f 19/19/10 22/20/11 21/21/11 20/22/10
f 23/23/12 24/24/12 19/19/10 20/22/10
f 25/25/13 28/26/14 27/27/14 26/28/13
f 29/29/15 30/30/15 25/25/13 26/28/13
f 31/31/16 34/32/17 33/33/17 32/34/16
f 35/35/18 38/36/19 37/37/19 36/38/18
f 38/36/19 31/31/16 32/34/16 37/37/19
f 39/39/20 42/40/21 41/41/21 40/42/20
f 43/43/22 46/44/23 45/45/23 44/46/22
f 46/44/23 39/39/20 40/42/20 45/45/23
f 47/47/24 50/48/25 49/49/25 48/50/24
f 51/51/26 54/52/27 53/53/27 52/54/26
f 54/52/27 47/47/24 48/50/24 53/53/27
f 55/55/28 58/56/29 57/57/29 56/58/28
f 59/59/30 62/60/31 61/61/31 60/62/30
f 62/60/31 55/55/28 56/58/28 61/61/31
f 63/63/32 66/64/33 65/65/33 64/66/32
f 67/67/34 70/68/35 69/69/35 68/70/34
f 70/68/35 63/63/32 64/66/32 69/69/35
f 71/71/36 74/72/37 73/73/37 72/74/36
f 75/75/38 78/76/39 77/77/39 76/78/38
f 78/76/39 71/71/36 72/74/36 77/77/39
f 79/79/40 82/80/41 81/81/41 80/82/40
f 83/83/42 86/84/43 85/85/43 84/86/42
f 86/84/43 79/79/40 80/82/40 85/85/43
f 87/87/44 90/88/45 89/89/45 88/90/44
f 91/91/46 94/92/47 93/93/47 92/94/46
f 94/92/47 87/87/44 88/90/44 93/93/47
f 95/95/48 98/96/49 97/97/49 96/98/48
f 99/99/50 102/100/51 101/101/51 100/102/50
f 102/100/51 95/95/48 96/98/48 101/101/51
f 103/103/52 106/104/53 105/105/53 104/106/52
f 107/107/54 110/108/55 109/109/55 108/110/54
f 110/108/55 103/103/52 104/106/52 109/109/55
f 111/111/56 114/112/57 113/113/57 112/114/56
f 115/115/58 118/116/59 117/117/59 116/118/58
f 118/116/59 111/111/56 112/114/56 117/117/59
f 119/119/60 122/120/61 121/121/61 120/122/60
f 123/123/62 126/124/63 125/125/63 124/126/62
f 126/124/63 119/119/60 120/122/60 125/125/63
f 127/127/64 130/128/65 129/129/65 128/130/64
f 131/131/66 134/132/67 133/133/67 132/134/66
f 134/132/67 127/127/64 128/130/64 133/133/67
f 135/135/68 138/136/69 137/137/69 136/138/68
f 138/136/69 140/139/70 139/140/70 137/137/69
f 141/141/71 144/142/72 143/143/72 142/144/71
f 144/142/72 146/145/73 145/146/73 143/143/72
f 147/147/74 150/148/75 149/149/75 148/150/74
f 150/148/75 152/151/76 151/152/76 149/149/75
f 153/153/77 156/154/78 155/155/78 154/156/77
f 156/154/78 158/157/79 157/158/79 155/155/78
f 159/159/80 162/160/81 161/161/81 160/162/80
f 162/160/81 164/163/82 163/164/82 161/161/81
f 165/165/83 168/166/84 167/167/84 166/168/83
f 168/166/84 170/169/85 169/170/85 167/167/84
f 171/171/86 174/172/87 173/173/87 172/174/86
f 174/172/87 176/175/88 175/176/88 173/173/87
f 177/177/89 180/178/90 179/179/90 178/180/89
f 180/178/90 182/181/91 181/182/91 179/179/90
f 183/183/92 186/184/93 185/185/93 184/186/92
f 186/184/93 188/187/94 187/188/94 185/185/93
f 189/189/95 192/190/95 191/191/95 190/192/95
f 193/193/96 196/194/96 195/195/96 194/196/96
f 197/197/97 200/198/97 199/199/97 198/200/97
f 201/201/98 204/202/98 203/203/98 202/204/98
f 205/205/99 208/206/99 207/207/99 206/208/99
f 209/209/100 212/210/100 211/211/100 210/212/100
f 213/213/101 216/214/101 215/215/101 214/216/101
f 217/217/102 220/218/102 219/219/102 218/220/102
f 221/221/103 224/222/103 223/223/103 222/224/103
f 225/225/104 228/226/104 227/227/104 226/228/104
f 229/229/105 232/230/105 231/231/105 230/232/105
f 233/233/106 236/234/106 235/235/106 234/236/106
f 237/237/107 240/238/107 239/239/107 238/240/107
f 241/241/108 244/242/108 243/243/108 242/244/108
f 245/245/109 248/246/109 247/247/109 246/248/109
f 249/249/110 252/250/110 251/251/110 250/252/110
f 253/253/111 256/254/111 255/255/111 254/256/111
